<svg version="1.1" xmlns="http://www.w3.org/2000/svg" xmlns:xlink="http://www.w3.org/1999/xlink" width="748" height="524"><defs/><g><text fill="#eeeeee" stroke="none" font-family="Arial" font-size="24px" font-style="normal" font-weight="normal" text-decoration="none" x="0" y="0">UNREGISTERED</text><text fill="#eeeeee" stroke="none" font-family="Arial" font-size="24px" font-style="normal" font-weight="normal" text-decoration="none" x="0" y="30">UNREGISTERED</text><text fill="#eeeeee" stroke="none" font-family="Arial" font-size="24px" font-style="normal" font-weight="normal" text-decoration="none" x="0" y="60">UNREGISTERED</text><text fill="#eeeeee" stroke="none" font-family="Arial" font-size="24px" font-style="normal" font-weight="normal" text-decoration="none" x="0" y="90">UNREGISTERED</text><text fill="#eeeeee" stroke="none" font-family="Arial" font-size="24px" font-style="normal" font-weight="normal" text-decoration="none" x="0" y="120">UNREGISTERED</text><text fill="#eeeeee" stroke="none" font-family="Arial" font-size="24px" font-style="normal" font-weight="normal" text-decoration="none" x="0" y="150">UNREGISTERED</text><text fill="#eeeeee" stroke="none" font-family="Arial" font-size="24px" font-style="normal" font-weight="normal" text-decoration="none" x="0" y="180">UNREGISTERED</text><text fill="#eeeeee" stroke="none" font-family="Arial" font-size="24px" font-style="normal" font-weight="normal" text-decoration="none" x="0" y="210">UNREGISTERED</text><text fill="#eeeeee" stroke="none" font-family="Arial" font-size="24px" font-style="normal" font-weight="normal" text-decoration="none" x="0" y="240">UNREGISTERED</text><text fill="#eeeeee" stroke="none" font-family="Arial" font-size="24px" font-style="normal" font-weight="normal" text-decoration="none" x="0" y="270">UNREGISTERED</text><text fill="#eeeeee" stroke="none" font-family="Arial" font-size="24px" font-style="normal" font-weight="normal" text-decoration="none" x="0" y="300">UNREGISTERED</text><text fill="#eeeeee" stroke="none" font-family="Arial" font-size="24px" font-style="normal" font-weight="normal" text-decoration="none" x="0" y="330">UNREGISTERED</text><text fill="#eeeeee" stroke="none" font-family="Arial" font-size="24px" font-style="normal" font-weight="normal" text-decoration="none" x="0" y="360">UNREGISTERED</text><text fill="#eeeeee" stroke="none" font-family="Arial" font-size="24px" font-style="normal" font-weight="normal" text-decoration="none" x="0" y="390">UNREGISTERED</text><text fill="#eeeeee" stroke="none" font-family="Arial" font-size="24px" font-style="normal" font-weight="normal" text-decoration="none" x="0" y="420">UNREGISTERED</text><text fill="#eeeeee" stroke="none" font-family="Arial" font-size="24px" font-style="normal" font-weight="normal" text-decoration="none" x="0" y="450">UNREGISTERED</text><text fill="#eeeeee" stroke="none" font-family="Arial" font-size="24px" font-style="normal" font-weight="normal" text-decoration="none" x="0" y="480">UNREGISTERED</text><text fill="#eeeeee" stroke="none" font-family="Arial" font-size="24px" font-style="normal" font-weight="normal" text-decoration="none" x="0" y="510">UNREGISTERED</text><text fill="#eeeeee" stroke="none" font-family="Arial" font-size="24px" font-style="normal" font-weight="normal" text-decoration="none" x="200" y="0">UNREGISTERED</text><text fill="#eeeeee" stroke="none" font-family="Arial" font-size="24px" font-style="normal" font-weight="normal" text-decoration="none" x="200" y="30">UNREGISTERED</text><text fill="#eeeeee" stroke="none" font-family="Arial" font-size="24px" font-style="normal" font-weight="normal" text-decoration="none" x="200" y="60">UNREGISTERED</text><text fill="#eeeeee" stroke="none" font-family="Arial" font-size="24px" font-style="normal" font-weight="normal" text-decoration="none" x="200" y="90">UNREGISTERED</text><text fill="#eeeeee" stroke="none" font-family="Arial" font-size="24px" font-style="normal" font-weight="normal" text-decoration="none" x="200" y="120">UNREGISTERED</text><text fill="#eeeeee" stroke="none" font-family="Arial" font-size="24px" font-style="normal" font-weight="normal" text-decoration="none" x="200" y="150">UNREGISTERED</text><text fill="#eeeeee" stroke="none" font-family="Arial" font-size="24px" font-style="normal" font-weight="normal" text-decoration="none" x="200" y="180">UNREGISTERED</text><text fill="#eeeeee" stroke="none" font-family="Arial" font-size="24px" font-style="normal" font-weight="normal" text-decoration="none" x="200" y="210">UNREGISTERED</text><text fill="#eeeeee" stroke="none" font-family="Arial" font-size="24px" font-style="normal" font-weight="normal" text-decoration="none" x="200" y="240">UNREGISTERED</text><text fill="#eeeeee" stroke="none" font-family="Arial" font-size="24px" font-style="normal" font-weight="normal" text-decoration="none" x="200" y="270">UNREGISTERED</text><text fill="#eeeeee" stroke="none" font-family="Arial" font-size="24px" font-style="normal" font-weight="normal" text-decoration="none" x="200" y="300">UNREGISTERED</text><text fill="#eeeeee" stroke="none" font-family="Arial" font-size="24px" font-style="normal" font-weight="normal" text-decoration="none" x="200" y="330">UNREGISTERED</text><text fill="#eeeeee" stroke="none" font-family="Arial" font-size="24px" font-style="normal" font-weight="normal" text-decoration="none" x="200" y="360">UNREGISTERED</text><text fill="#eeeeee" stroke="none" font-family="Arial" font-size="24px" font-style="normal" font-weight="normal" text-decoration="none" x="200" y="390">UNREGISTERED</text><text fill="#eeeeee" stroke="none" font-family="Arial" font-size="24px" font-style="normal" font-weight="normal" text-decoration="none" x="200" y="420">UNREGISTERED</text><text fill="#eeeeee" stroke="none" font-family="Arial" font-size="24px" font-style="normal" font-weight="normal" text-decoration="none" x="200" y="450">UNREGISTERED</text><text fill="#eeeeee" stroke="none" font-family="Arial" font-size="24px" font-style="normal" font-weight="normal" text-decoration="none" x="200" y="480">UNREGISTERED</text><text fill="#eeeeee" stroke="none" font-family="Arial" font-size="24px" font-style="normal" font-weight="normal" text-decoration="none" x="200" y="510">UNREGISTERED</text><text fill="#eeeeee" stroke="none" font-family="Arial" font-size="24px" font-style="normal" font-weight="normal" text-decoration="none" x="400" y="0">UNREGISTERED</text><text fill="#eeeeee" stroke="none" font-family="Arial" font-size="24px" font-style="normal" font-weight="normal" text-decoration="none" x="400" y="30">UNREGISTERED</text><text fill="#eeeeee" stroke="none" font-family="Arial" font-size="24px" font-style="normal" font-weight="normal" text-decoration="none" x="400" y="60">UNREGISTERED</text><text fill="#eeeeee" stroke="none" font-family="Arial" font-size="24px" font-style="normal" font-weight="normal" text-decoration="none" x="400" y="90">UNREGISTERED</text><text fill="#eeeeee" stroke="none" font-family="Arial" font-size="24px" font-style="normal" font-weight="normal" text-decoration="none" x="400" y="120">UNREGISTERED</text><text fill="#eeeeee" stroke="none" font-family="Arial" font-size="24px" font-style="normal" font-weight="normal" text-decoration="none" x="400" y="150">UNREGISTERED</text><text fill="#eeeeee" stroke="none" font-family="Arial" font-size="24px" font-style="normal" font-weight="normal" text-decoration="none" x="400" y="180">UNREGISTERED</text><text fill="#eeeeee" stroke="none" font-family="Arial" font-size="24px" font-style="normal" font-weight="normal" text-decoration="none" x="400" y="210">UNREGISTERED</text><text fill="#eeeeee" stroke="none" font-family="Arial" font-size="24px" font-style="normal" font-weight="normal" text-decoration="none" x="400" y="240">UNREGISTERED</text><text fill="#eeeeee" stroke="none" font-family="Arial" font-size="24px" font-style="normal" font-weight="normal" text-decoration="none" x="400" y="270">UNREGISTERED</text><text fill="#eeeeee" stroke="none" font-family="Arial" font-size="24px" font-style="normal" font-weight="normal" text-decoration="none" x="400" y="300">UNREGISTERED</text><text fill="#eeeeee" stroke="none" font-family="Arial" font-size="24px" font-style="normal" font-weight="normal" text-decoration="none" x="400" y="330">UNREGISTERED</text><text fill="#eeeeee" stroke="none" font-family="Arial" font-size="24px" font-style="normal" font-weight="normal" text-decoration="none" x="400" y="360">UNREGISTERED</text><text fill="#eeeeee" stroke="none" font-family="Arial" font-size="24px" font-style="normal" font-weight="normal" text-decoration="none" x="400" y="390">UNREGISTERED</text><text fill="#eeeeee" stroke="none" font-family="Arial" font-size="24px" font-style="normal" font-weight="normal" text-decoration="none" x="400" y="420">UNREGISTERED</text><text fill="#eeeeee" stroke="none" font-family="Arial" font-size="24px" font-style="normal" font-weight="normal" text-decoration="none" x="400" y="450">UNREGISTERED</text><text fill="#eeeeee" stroke="none" font-family="Arial" font-size="24px" font-style="normal" font-weight="normal" text-decoration="none" x="400" y="480">UNREGISTERED</text><text fill="#eeeeee" stroke="none" font-family="Arial" font-size="24px" font-style="normal" font-weight="normal" text-decoration="none" x="400" y="510">UNREGISTERED</text><text fill="#eeeeee" stroke="none" font-family="Arial" font-size="24px" font-style="normal" font-weight="normal" text-decoration="none" x="600" y="0">UNREGISTERED</text><text fill="#eeeeee" stroke="none" font-family="Arial" font-size="24px" font-style="normal" font-weight="normal" text-decoration="none" x="600" y="30">UNREGISTERED</text><text fill="#eeeeee" stroke="none" font-family="Arial" font-size="24px" font-style="normal" font-weight="normal" text-decoration="none" x="600" y="60">UNREGISTERED</text><text fill="#eeeeee" stroke="none" font-family="Arial" font-size="24px" font-style="normal" font-weight="normal" text-decoration="none" x="600" y="90">UNREGISTERED</text><text fill="#eeeeee" stroke="none" font-family="Arial" font-size="24px" font-style="normal" font-weight="normal" text-decoration="none" x="600" y="120">UNREGISTERED</text><text fill="#eeeeee" stroke="none" font-family="Arial" font-size="24px" font-style="normal" font-weight="normal" text-decoration="none" x="600" y="150">UNREGISTERED</text><text fill="#eeeeee" stroke="none" font-family="Arial" font-size="24px" font-style="normal" font-weight="normal" text-decoration="none" x="600" y="180">UNREGISTERED</text><text fill="#eeeeee" stroke="none" font-family="Arial" font-size="24px" font-style="normal" font-weight="normal" text-decoration="none" x="600" y="210">UNREGISTERED</text><text fill="#eeeeee" stroke="none" font-family="Arial" font-size="24px" font-style="normal" font-weight="normal" text-decoration="none" x="600" y="240">UNREGISTERED</text><text fill="#eeeeee" stroke="none" font-family="Arial" font-size="24px" font-style="normal" font-weight="normal" text-decoration="none" x="600" y="270">UNREGISTERED</text><text fill="#eeeeee" stroke="none" font-family="Arial" font-size="24px" font-style="normal" font-weight="normal" text-decoration="none" x="600" y="300">UNREGISTERED</text><text fill="#eeeeee" stroke="none" font-family="Arial" font-size="24px" font-style="normal" font-weight="normal" text-decoration="none" x="600" y="330">UNREGISTERED</text><text fill="#eeeeee" stroke="none" font-family="Arial" font-size="24px" font-style="normal" font-weight="normal" text-decoration="none" x="600" y="360">UNREGISTERED</text><text fill="#eeeeee" stroke="none" font-family="Arial" font-size="24px" font-style="normal" font-weight="normal" text-decoration="none" x="600" y="390">UNREGISTERED</text><text fill="#eeeeee" stroke="none" font-family="Arial" font-size="24px" font-style="normal" font-weight="normal" text-decoration="none" x="600" y="420">UNREGISTERED</text><text fill="#eeeeee" stroke="none" font-family="Arial" font-size="24px" font-style="normal" font-weight="normal" text-decoration="none" x="600" y="450">UNREGISTERED</text><text fill="#eeeeee" stroke="none" font-family="Arial" font-size="24px" font-style="normal" font-weight="normal" text-decoration="none" x="600" y="480">UNREGISTERED</text><text fill="#eeeeee" stroke="none" font-family="Arial" font-size="24px" font-style="normal" font-weight="normal" text-decoration="none" x="600" y="510">UNREGISTERED</text><g transform="translate(2,-14) scale(1,1)"><path fill="#ffffff" stroke="none" d="M 32.40935031960227 249.68 C 32.40935031960227 244.886167936 36.295192644547726 241 41.088623046875 241 C 45.882053449202274 241 49.76789577414773 244.886167936 49.76789577414773 249.68 C 49.76789577414773 254.47383206400002 45.882053449202274 258.36 41.088623046875 258.36 C 36.295192644547726 258.36 32.40935031960227 254.47383206400002 32.40935031960227 249.68 Z"/></g><g transform="translate(2,-14) scale(1,1)"><path fill="none" stroke="#000000" d="M 32.40935031960227 249.68 C 32.40935031960227 244.886167936 36.295192644547726 241 41.088623046875 241 C 45.882053449202274 241 49.76789577414773 244.886167936 49.76789577414773 249.68 C 49.76789577414773 254.47383206400002 45.882053449202274 258.36 41.088623046875 258.36 C 36.295192644547726 258.36 32.40935031960227 254.47383206400002 32.40935031960227 249.68 Z" stroke-miterlimit="10"/></g><g transform="translate(2,-14) scale(1,1)"><path fill="none" stroke="#000000" d="M 41.088623046875 258.36 L 41.088623046875 275.64" stroke-miterlimit="10"/></g><g transform="translate(2,-14) scale(1,1)"><path fill="none" stroke="#000000" d="M 31.898804865056817 264.84 L 50.27844122869318 264.84" stroke-miterlimit="10"/></g><g transform="translate(2,-14) scale(1,1)"><path fill="none" stroke="#000000" d="M 41.088623046875 275.64 L 28.324986683238635 293" stroke-miterlimit="10"/></g><g transform="translate(2,-14) scale(1,1)"><path fill="none" stroke="#000000" d="M 41.088623046875 275.64 L 53.852259410511365 293" stroke-miterlimit="10"/></g><g transform="translate(2,-14) scale(1,1)"><g><path fill="none" stroke="none"/><text fill="#000000" stroke="none" font-family="Arial" font-size="13px" font-style="normal" font-weight="bold" text-decoration="none" x="22.302734375" y="313.5">Actor1</text></g></g><g transform="translate(2,-14) scale(1,1)"><path fill="#C0C0C0" stroke="none" d="M 199 152 C 199 142.6111584 234.3695008 135 278 135 C 321.63049920000003 135 357 142.6111584 357 152 C 357 161.3888416 321.63049920000003 169 278 169 C 234.3695008 169 199 161.3888416 199 152 Z" opacity="0.2"/></g><g transform="translate(2,-14) scale(1,1)"><path fill="#ffffff" stroke="none" d="M 192 145 C 192 135.6111584 227.3695008 128 271 128 C 314.63049920000003 128 350 135.6111584 350 145 C 350 154.3888416 314.63049920000003 162 271 162 C 227.3695008 162 192 154.3888416 192 145 Z"/></g><g transform="translate(2,-14) scale(1,1)"><path fill="none" stroke="#000000" d="M 192 145 C 192 135.6111584 227.3695008 128 271 128 C 314.63049920000003 128 350 135.6111584 350 145 C 350 154.3888416 314.63049920000003 162 271 162 C 227.3695008 162 192 154.3888416 192 145 Z" stroke-miterlimit="10"/></g><g transform="translate(2,-14) scale(1,1)"><g><path fill="none" stroke="none"/><text fill="#000000" stroke="none" font-family="Arial" font-size="13px" font-style="normal" font-weight="bold" text-decoration="none" x="225.122314453125" y="152">site choisir billet</text></g></g><g transform="translate(2,-14) scale(1,1)"><path fill="#C0C0C0" stroke="none" d="M 151 56 C 151 46.6111584 183.6832096 39 224 39 C 264.3167904 39 297 46.6111584 297 56 C 297 65.3888416 264.3167904 73 224 73 C 183.6832096 73 151 65.3888416 151 56 Z" opacity="0.2"/></g><g transform="translate(2,-14) scale(1,1)"><path fill="#ffffff" stroke="none" d="M 144 49 C 144 39.6111584 176.6832096 32 217 32 C 257.3167904 32 290 39.6111584 290 49 C 290 58.3888416 257.3167904 66 217 66 C 176.6832096 66 144 58.3888416 144 49 Z"/></g><g transform="translate(2,-14) scale(1,1)"><path fill="none" stroke="#000000" d="M 144 49 C 144 39.6111584 176.6832096 32 217 32 C 257.3167904 32 290 39.6111584 290 49 C 290 58.3888416 257.3167904 66 217 66 C 176.6832096 66 144 58.3888416 144 49 Z" stroke-miterlimit="10"/></g><g transform="translate(2,-14) scale(1,1)"><g><path fill="none" stroke="none"/><text fill="#000000" stroke="none" font-family="Arial" font-size="13px" font-style="normal" font-weight="bold" text-decoration="none" x="173.280517578125" y="56">site compagnie</text></g></g><g transform="translate(2,-14) scale(1,1)"><path fill="#C0C0C0" stroke="none" d="M 311 48 C 311 38.6111584 347.0410736 31 391.5 31 C 435.9589264 31 472 38.6111584 472 48 C 472 57.3888416 435.9589264 65 391.5 65 C 347.0410736 65 311 57.3888416 311 48 Z" opacity="0.2"/></g><g transform="translate(2,-14) scale(1,1)"><path fill="#ffffff" stroke="none" d="M 304 41 C 304 31.6111584 340.0410736 24 384.5 24 C 428.9589264 24 465 31.6111584 465 41 C 465 50.3888416 428.9589264 58 384.5 58 C 340.0410736 58 304 50.3888416 304 41 Z"/></g><g transform="translate(2,-14) scale(1,1)"><path fill="none" stroke="#000000" d="M 304 41 C 304 31.6111584 340.0410736 24 384.5 24 C 428.9589264 24 465 31.6111584 465 41 C 465 50.3888416 428.9589264 58 384.5 58 C 340.0410736 58 304 50.3888416 304 41 Z" stroke-miterlimit="10"/></g><g transform="translate(2,-14) scale(1,1)"><g><path fill="none" stroke="none"/><text fill="#000000" stroke="none" font-family="Arial" font-size="13px" font-style="normal" font-weight="bold" text-decoration="none" x="336.089599609375" y="48">site comparateur</text></g></g><g transform="translate(2,-14) scale(1,1)"><path fill="#C0C0C0" stroke="none" d="M 511 152 C 511 142.6111584 562.9349632 135 627 135 C 691.0650368 135 743 142.6111584 743 152 C 743 161.3888416 691.0650368 169 627 169 C 562.9349632 169 511 161.3888416 511 152 Z" opacity="0.2"/></g><g transform="translate(2,-14) scale(1,1)"><path fill="#ffffff" stroke="none" d="M 504 145 C 504 135.6111584 555.9349632 128 620 128 C 684.0650368 128 736 135.6111584 736 145 C 736 154.3888416 684.0650368 162 620 162 C 555.9349632 162 504 154.3888416 504 145 Z"/></g><g transform="translate(2,-14) scale(1,1)"><path fill="none" stroke="#000000" d="M 504 145 C 504 135.6111584 555.9349632 128 620 128 C 684.0650368 128 736 135.6111584 736 145 C 736 154.3888416 684.0650368 162 620 162 C 555.9349632 162 504 154.3888416 504 145 Z" stroke-miterlimit="10"/></g><g transform="translate(2,-14) scale(1,1)"><g><path fill="none" stroke="none"/><text fill="#000000" stroke="none" font-family="Arial" font-size="13px" font-style="normal" font-weight="bold" text-decoration="none" x="548.090576171875" y="152">entrer date et destination</text></g></g><g transform="translate(2,-14) scale(1,1)"><path fill="#C0C0C0" stroke="none" d="M 175 360 C 175 350.6111584 199.624336 343 230 343 C 260.37566400000003 343 285 350.6111584 285 360 C 285 369.3888416 260.37566400000003 377 230 377 C 199.624336 377 175 369.3888416 175 360 Z" opacity="0.2"/></g><g transform="translate(2,-14) scale(1,1)"><path fill="#ffffff" stroke="none" d="M 168 353 C 168 343.6111584 192.624336 336 223 336 C 253.375664 336 278 343.6111584 278 353 C 278 362.3888416 253.375664 370 223 370 C 192.624336 370 168 362.3888416 168 353 Z"/></g><g transform="translate(2,-14) scale(1,1)"><path fill="none" stroke="#000000" d="M 168 353 C 168 343.6111584 192.624336 336 223 336 C 253.375664 336 278 343.6111584 278 353 C 278 362.3888416 253.375664 370 223 370 C 192.624336 370 168 362.3888416 168 353 Z" stroke-miterlimit="10"/></g><g transform="translate(2,-14) scale(1,1)"><g><path fill="none" stroke="none"/><text fill="#000000" stroke="none" font-family="Arial" font-size="13px" font-style="normal" font-weight="bold" text-decoration="none" x="191.56640625" y="360">payer billet</text></g></g><g transform="translate(2,-14) scale(1,1)"><path fill="#C0C0C0" stroke="none" d="M 15 503 C 15 485.3268864 66.7111056 471 130.5 471 C 194.2888944 471 246 485.3268864 246 503 C 246 520.6731136 194.2888944 535 130.5 535 C 66.7111056 535 15 520.6731136 15 503 Z" opacity="0.2"/></g><g transform="translate(2,-14) scale(1,1)"><path fill="#ffffff" stroke="none" d="M 8 496 C 8 478.3268864 59.711105599999996 464 123.5 464 C 187.2888944 464 239 478.3268864 239 496 C 239 513.6731136 187.2888944 528 123.5 528 C 59.711105599999996 528 8 513.6731136 8 496 Z"/></g><g transform="translate(2,-14) scale(1,1)"><path fill="none" stroke="#000000" d="M 8 496 C 8 478.3268864 59.711105599999996 464 123.5 464 C 187.2888944 464 239 478.3268864 239 496 C 239 513.6731136 187.2888944 528 123.5 528 C 59.711105599999996 528 8 513.6731136 8 496 Z" stroke-miterlimit="10"/></g><g transform="translate(2,-14) scale(1,1)"><g><path fill="none" stroke="none"/><text fill="#000000" stroke="none" font-family="Arial" font-size="13px" font-style="normal" font-weight="bold" text-decoration="none" x="51.228759765625" y="503">entrer données passager</text></g></g><g transform="translate(2,-14) scale(1,1)"><path fill="#C0C0C0" stroke="none" d="M 279 507 C 279 491.5360256 318.3989376 479 367 479 C 415.6010624 479 455 491.5360256 455 507 C 455 522.4639744 415.6010624 535 367 535 C 318.3989376 535 279 522.4639744 279 507 Z" opacity="0.2"/></g><g transform="translate(2,-14) scale(1,1)"><path fill="#ffffff" stroke="none" d="M 272 500 C 272 484.5360256 311.3989376 472 360 472 C 408.6010624 472 448 484.5360256 448 500 C 448 515.4639744 408.6010624 528 360 528 C 311.3989376 528 272 515.4639744 272 500 Z"/></g><g transform="translate(2,-14) scale(1,1)"><path fill="none" stroke="#000000" d="M 272 500 C 272 484.5360256 311.3989376 472 360 472 C 408.6010624 472 448 484.5360256 448 500 C 448 515.4639744 408.6010624 528 360 528 C 311.3989376 528 272 515.4639744 272 500 Z" stroke-miterlimit="10"/></g><g transform="translate(2,-14) scale(1,1)"><g><path fill="none" stroke="none"/><text fill="#000000" stroke="none" font-family="Arial" font-size="13px" font-style="normal" font-weight="bold" text-decoration="none" x="307.974609375" y="507">activer notification</text></g></g><g transform="translate(2,-14) scale(1,1)"><path fill="#C0C0C0" stroke="none" d="M 431 328 C 431 318.6111584 466.36950079999997 311 510 311 C 553.6304992 311 589 318.6111584 589 328 C 589 337.3888416 553.6304992 345 510 345 C 466.36950079999997 345 431 337.3888416 431 328 Z" opacity="0.2"/></g><g transform="translate(2,-14) scale(1,1)"><path fill="#ffffff" stroke="none" d="M 424 321 C 424 311.6111584 459.36950079999997 304 503 304 C 546.6304992 304 582 311.6111584 582 321 C 582 330.3888416 546.6304992 338 503 338 C 459.36950079999997 338 424 330.3888416 424 321 Z"/></g><g transform="translate(2,-14) scale(1,1)"><path fill="none" stroke="#000000" d="M 424 321 C 424 311.6111584 459.36950079999997 304 503 304 C 546.6304992 304 582 311.6111584 582 321 C 582 330.3888416 546.6304992 338 503 338 C 459.36950079999997 338 424 330.3888416 424 321 Z" stroke-miterlimit="10"/></g><g transform="translate(2,-14) scale(1,1)"><g><path fill="none" stroke="none"/><text fill="#000000" stroke="none" font-family="Arial" font-size="13px" font-style="normal" font-weight="bold" text-decoration="none" x="455.306884765625" y="328">valider paiement</text></g></g><g transform="translate(2,-14) scale(1,1)"><path fill="#C0C0C0" stroke="none" d="M 439 392 C 439 382.6111584 472.8024976 375 514.5 375 C 556.1975024 375 590 382.6111584 590 392 C 590 401.3888416 556.1975024 409 514.5 409 C 472.8024976 409 439 401.3888416 439 392 Z" opacity="0.2"/></g><g transform="translate(2,-14) scale(1,1)"><path fill="#ffffff" stroke="none" d="M 432 385 C 432 375.6111584 465.8024976 368 507.5 368 C 549.1975024 368 583 375.6111584 583 385 C 583 394.3888416 549.1975024 402 507.5 402 C 465.8024976 402 432 394.3888416 432 385 Z"/></g><g transform="translate(2,-14) scale(1,1)"><path fill="none" stroke="#000000" d="M 432 385 C 432 375.6111584 465.8024976 368 507.5 368 C 549.1975024 368 583 375.6111584 583 385 C 583 394.3888416 549.1975024 402 507.5 402 C 465.8024976 402 432 394.3888416 432 385 Z" stroke-miterlimit="10"/></g><g transform="translate(2,-14) scale(1,1)"><g><path fill="none" stroke="none"/><text fill="#000000" stroke="none" font-family="Arial" font-size="13px" font-style="normal" font-weight="bold" text-decoration="none" x="461.977783203125" y="392">enter num carte</text></g></g><g transform="translate(2,-14) scale(1,1)"><path fill="#C0C0C0" stroke="none" d="M 551 496 C 551 486.6111584 586.817216 479 631 479 C 675.182784 479 711 486.6111584 711 496 C 711 505.3888416 675.182784 513 631 513 C 586.817216 513 551 505.3888416 551 496 Z" opacity="0.2"/></g><g transform="translate(2,-14) scale(1,1)"><path fill="#ffffff" stroke="none" d="M 544 489 C 544 479.6111584 579.817216 472 624 472 C 668.182784 472 704 479.6111584 704 489 C 704 498.3888416 668.182784 506 624 506 C 579.817216 506 544 498.3888416 544 489 Z"/></g><g transform="translate(2,-14) scale(1,1)"><path fill="none" stroke="#000000" d="M 544 489 C 544 479.6111584 579.817216 472 624 472 C 668.182784 472 704 479.6111584 704 489 C 704 498.3888416 668.182784 506 624 506 C 579.817216 506 544 498.3888416 544 489 Z" stroke-miterlimit="10"/></g><g transform="translate(2,-14) scale(1,1)"><g><path fill="none" stroke="none"/><text fill="#000000" stroke="none" font-family="Arial" font-size="13px" font-style="normal" font-weight="bold" text-decoration="none" x="576.306884765625" y="496">telecharger billet</text></g></g><g transform="translate(2,-14) scale(1,1)"><path fill="none" stroke="#000000" d="M 67 264 L 240 163" stroke-miterlimit="10"/></g><g transform="translate(2,-14) scale(1,1)"><path fill="none" stroke="#000000" d="M 67 290 L 179 335" stroke-miterlimit="10"/></g><g transform="translate(2,-14) scale(1,1)"><path fill="none" stroke="#000000" d="M 227 67 L 261 127" stroke-miterlimit="10"/></g><g transform="translate(2,-14) scale(1,1)"><path fill="#FFFFFF" stroke="none" d="M 243.65459938155942 113.46718516398745 L 261 127 L 258.3040947393897 105.16580446121695"/></g><g transform="translate(2,-14) scale(1,1)"><path fill="none" stroke="#000000" d="M 243.65459938155942 113.46718516398745 L 261 127 L 258.3040947393897 105.16580446121695 L 243.65459938155942 113.46718516398745" stroke-miterlimit="10"/></g><g transform="translate(2,-14) scale(1,1)"><path fill="none" stroke="#000000" d="M 364 59 L 291 127" stroke-miterlimit="10"/></g><g transform="translate(2,-14) scale(1,1)"><path fill="#FFFFFF" stroke="none" d="M 300.1340514456914 106.98577745233499 L 291 127 L 311.61094220058584 119.30655723332457"/></g><g transform="translate(2,-14) scale(1,1)"><path fill="none" stroke="#000000" d="M 300.1340514456914 106.98577745233499 L 291 127 L 311.61094220058584 119.30655723332457 L 300.1340514456914 106.98577745233499" stroke-miterlimit="10"/></g><g transform="translate(2,-14) scale(1,1)"><path fill="none" stroke="#000000" d="M 351 145 L 503 145" stroke-miterlimit="10" stroke-dasharray="3"/></g><g transform="translate(2,-14) scale(1,1)"><path fill="none" stroke="#000000" d="M 492.83732514237585 149.209517756016 L 503 145 L 492.83732514237585 140.790482243984" stroke-miterlimit="10"/></g><g transform="translate(2,-14) scale(1,1)"><g><path fill="none" stroke="none"/><text fill="#000000" stroke="none" font-family="Arial" font-size="13px" font-style="normal" font-weight="normal" text-decoration="none" x="399.5" y="163.5">«include»</text></g></g><g transform="translate(2,-14) scale(1,1)"><path fill="none" stroke="#000000" d="M 279 347 L 423 330" stroke-miterlimit="10" stroke-dasharray="3"/></g><g transform="translate(2,-14) scale(1,1)"><path fill="none" stroke="#000000" d="M 413.40094222313377 335.3719726168684 L 423 330 L 412.41388288724033 327.01099941871246" stroke-miterlimit="10"/></g><g transform="translate(2,-14) scale(1,1)"><g><path fill="none" stroke="none"/><text fill="#000000" stroke="none" font-family="Arial" font-size="13px" font-style="normal" font-weight="normal" text-decoration="none" x="327.5" y="355.5">«include»</text></g></g><g transform="translate(2,-14) scale(1,1)"><path fill="none" stroke="#000000" d="M 431 376 L 279 359" stroke-miterlimit="10" stroke-dasharray="3"/></g><g transform="translate(2,-14) scale(1,1)"><path fill="none" stroke="#000000" d="M 289.56758842028506 355.94613769474506 L 279 359 L 288.6318201776278 364.31300668791624" stroke-miterlimit="10"/></g><g transform="translate(2,-14) scale(1,1)"><g><path fill="none" stroke="none"/><text fill="#000000" stroke="none" font-family="Arial" font-size="13px" font-style="normal" font-weight="normal" text-decoration="none" x="359.5" y="387.5">«include»</text></g></g><g transform="translate(2,-14) scale(1,1)"><path fill="none" stroke="#000000" d="M 146 463 L 210 371" stroke-miterlimit="10" stroke-dasharray="3"/></g><g transform="translate(2,-14) scale(1,1)"><path fill="none" stroke="#000000" d="M 207.65207230662398 381.74649875758047 L 210 371 L 200.7408422607802 376.9386865517761" stroke-miterlimit="10"/></g><g transform="translate(2,-14) scale(1,1)"><g><path fill="none" stroke="none"/><text fill="#000000" stroke="none" font-family="Arial" font-size="13px" font-style="normal" font-weight="normal" text-decoration="none" x="135.5" y="436.5">«include»</text></g></g><g transform="translate(2,-14) scale(1,1)"><path fill="none" stroke="#000000" d="M 333 471 L 240 371" stroke-miterlimit="10"/></g><g transform="translate(2,-14) scale(1,1)"><path fill="#FFFFFF" stroke="none" d="M 260.00684120517195 380.150207920645 L 240 371 L 247.67679901634457 391.6171471562545"/></g><g transform="translate(2,-14) scale(1,1)"><path fill="none" stroke="#000000" d="M 260.00684120517195 380.150207920645 L 240 371 L 247.67679901634457 391.6171471562545 L 260.00684120517195 380.150207920645" stroke-miterlimit="10"/></g><g transform="translate(2,-14) scale(1,1)"><path fill="none" stroke="#000000" d="M 571 471 L 276 371" stroke-miterlimit="10" stroke-dasharray="3"/></g><g transform="translate(2,-14) scale(1,1)"><path fill="none" stroke="#000000" d="M 286.97614315566545 370.2759271954154 L 276 371 L 284.2733020468399 378.2493084664508" stroke-miterlimit="10"/></g><g transform="translate(2,-14) scale(1,1)"><g><path fill="none" stroke="none"/><text fill="#000000" stroke="none" font-family="Arial" font-size="13px" font-style="normal" font-weight="normal" text-decoration="none" x="455.5" y="443.5">«extend»</text></g></g></g></svg>