<?xml version="1.0" encoding="UTF-8" standalone="no"?>
<!-- Created with Inkscape (http://www.inkscape.org/) -->

<svg
   xmlns:dc="http://purl.org/dc/elements/1.1/"
   xmlns:cc="http://creativecommons.org/ns#"
   xmlns:rdf="http://www.w3.org/1999/02/22-rdf-syntax-ns#"
   xmlns:svg="http://www.w3.org/2000/svg"
   xmlns="http://www.w3.org/2000/svg"
   xmlns:sodipodi="http://sodipodi.sourceforge.net/DTD/sodipodi-0.dtd"
   xmlns:inkscape="http://www.inkscape.org/namespaces/inkscape"
   width="210mm"
   height="297mm"
   viewBox="0 0 210 297"
   version="1.1"
   id="svg3614"
   inkscape:version="0.92.4 (5da689c313, 2019-01-14)"
   sodipodi:docname="usecase.svg">
  <defs
     id="defs3608" />
  <sodipodi:namedview
     id="base"
     pagecolor="#ffffff"
     bordercolor="#666666"
     borderopacity="1.0"
     inkscape:pageopacity="0.0"
     inkscape:pageshadow="2"
     inkscape:zoom="0.7600174"
     inkscape:cx="373.50074"
     inkscape:cy="748.45917"
     inkscape:document-units="mm"
     inkscape:current-layer="layer1"
     showgrid="false"
     inkscape:window-width="1366"
     inkscape:window-height="705"
     inkscape:window-x="-8"
     inkscape:window-y="-8"
     inkscape:window-maximized="1" />
  <metadata
     id="metadata3611">
    <rdf:RDF>
      <cc:Work
         rdf:about="">
        <dc:format>image/svg+xml</dc:format>
        <dc:type
           rdf:resource="http://purl.org/dc/dcmitype/StillImage" />
        <dc:title></dc:title>
      </cc:Work>
    </rdf:RDF>
  </metadata>
  <g
     inkscape:label="Calque 1"
     inkscape:groupmode="layer"
     id="layer1">
    <text
       style="font-style:normal;font-weight:normal;font-size:8.90523243px;font-family:Arial;text-decoration:none;text-decoration-line:none;fill:#eeeeee;stroke:none;stroke-width:0.37105137"
       font-size="24px"
       font-style="normal"
       font-weight="normal"
       text-decoration="none"
       x="0.9228586"
       y="177.05545"
       id="text4146"
       transform="scale(0.9214415,1.0852561)">UNREGISTERED</text>
    <text
       style="font-style:normal;font-weight:normal;font-size:8.90523243px;font-family:Arial;text-decoration:none;text-decoration-line:none;fill:#eeeeee;stroke:none;stroke-width:0.37105137"
       font-size="24px"
       font-style="normal"
       font-weight="normal"
       text-decoration="none"
       x="75.133133"
       y="177.05545"
       id="text4178"
       transform="scale(0.9214415,1.0852561)">UNREGISTERED</text>
    <text
       style="font-style:normal;font-weight:normal;font-size:8.90523243px;font-family:Arial;text-decoration:none;text-decoration-line:none;fill:#eeeeee;stroke:none;stroke-width:0.37105137"
       font-size="24px"
       font-style="normal"
       font-weight="normal"
       text-decoration="none"
       x="149.3434"
       y="65.740044"
       id="text4190"
       transform="scale(0.9214415,1.0852561)">UNREGISTERED</text>
    <text
       style="font-style:normal;font-weight:normal;font-size:8.90523243px;font-family:Arial;text-decoration:none;text-decoration-line:none;fill:#eeeeee;stroke:none;stroke-width:0.37105137"
       font-size="24px"
       font-style="normal"
       font-weight="normal"
       text-decoration="none"
       x="149.3434"
       y="132.52928"
       id="text4202"
       transform="scale(0.9214415,1.0852561)">UNREGISTERED</text>
    <text
       style="font-style:normal;font-weight:normal;font-size:8.90523243px;font-family:Arial;text-decoration:none;text-decoration-line:none;fill:#eeeeee;stroke:none;stroke-width:0.37105137"
       font-size="24px"
       font-style="normal"
       font-weight="normal"
       text-decoration="none"
       x="149.3434"
       y="143.66083"
       id="text4204"
       transform="scale(0.9214415,1.0852561)">UNREGISTERED</text>
    <text
       style="font-style:normal;font-weight:normal;font-size:8.90523243px;font-family:Arial;text-decoration:none;text-decoration-line:none;fill:#eeeeee;stroke:none;stroke-width:0.37105137"
       font-size="24px"
       font-style="normal"
       font-weight="normal"
       text-decoration="none"
       x="149.3434"
       y="154.79237"
       id="text4206"
       transform="scale(0.9214415,1.0852561)">UNREGISTERED</text>
    <text
       style="font-style:normal;font-weight:normal;font-size:8.90523243px;font-family:Arial;text-decoration:none;text-decoration-line:none;fill:#eeeeee;stroke:none;stroke-width:0.37105137"
       font-size="24px"
       font-style="normal"
       font-weight="normal"
       text-decoration="none"
       x="149.3434"
       y="165.9239"
       id="text4208"
       transform="scale(0.9214415,1.0852561)">UNREGISTERED</text>
    <text
       style="font-style:normal;font-weight:normal;font-size:8.90523243px;font-family:Arial;text-decoration:none;text-decoration-line:none;fill:#eeeeee;stroke:none;stroke-width:0.37105137"
       font-size="24px"
       font-style="normal"
       font-weight="normal"
       text-decoration="none"
       x="149.3434"
       y="177.05545"
       id="text4210"
       transform="scale(0.9214415,1.0852561)">UNREGISTERED</text>
    <text
       style="font-style:normal;font-weight:normal;font-size:8.18340969px;font-family:Arial;text-decoration:none;text-decoration-line:none;fill:#eeeeee;stroke:none;stroke-width:0.3409754"
       font-size="24px"
       font-style="normal"
       font-weight="normal"
       text-decoration="none"
       x="2.2910156"
       y="71.795456"
       id="text4130"
       transform="scale(1.0027179,0.99728951)">UNREGISTERED</text>
    <text
       style="font-style:normal;font-weight:normal;font-size:8.18340969px;font-family:Arial;text-decoration:none;text-decoration-line:none;fill:#eeeeee;stroke:none;stroke-width:0.3409754"
       font-size="24px"
       font-style="normal"
       font-weight="normal"
       text-decoration="none"
       x="0.8480553"
       y="93.479126"
       id="text4134"
       transform="scale(1.0027179,0.99728951)">UNREGISTERED</text>
    <text
       style="font-style:normal;font-weight:normal;font-size:8.18340969px;font-family:Arial;text-decoration:none;text-decoration-line:none;fill:#eeeeee;stroke:none;stroke-width:0.3409754"
       font-size="24px"
       font-style="normal"
       font-weight="normal"
       text-decoration="none"
       x="0.8480553"
       y="124.16692"
       id="text4140"
       transform="scale(1.0027179,0.99728951)">UNREGISTERED</text>
    <text
       style="font-style:normal;font-weight:normal;font-size:8.18340969px;font-family:Arial;text-decoration:none;text-decoration-line:none;fill:#eeeeee;stroke:none;stroke-width:0.3409754"
       font-size="24px"
       font-style="normal"
       font-weight="normal"
       text-decoration="none"
       x="0.8480553"
       y="134.39618"
       id="text4142"
       transform="scale(1.0027179,0.99728951)">UNREGISTERED</text>
    <text
       style="font-style:normal;font-weight:normal;font-size:8.18340969px;font-family:Arial;text-decoration:none;text-decoration-line:none;fill:#eeeeee;stroke:none;stroke-width:0.3409754"
       font-size="24px"
       font-style="normal"
       font-weight="normal"
       text-decoration="none"
       x="69.043137"
       y="11.645038"
       id="text4150"
       transform="scale(1.0027179,0.99728951)">UNREGISTERED</text>
    <text
       style="font-style:normal;font-weight:normal;font-size:8.18340969px;font-family:Arial;text-decoration:none;text-decoration-line:none;fill:#eeeeee;stroke:none;stroke-width:0.3409754"
       font-size="24px"
       font-style="normal"
       font-weight="normal"
       text-decoration="none"
       x="69.043137"
       y="93.479126"
       id="text4166"
       transform="scale(1.0027179,0.99728951)">UNREGISTERED</text>
    <text
       style="font-style:normal;font-weight:normal;font-size:8.18340969px;font-family:Arial;text-decoration:none;text-decoration-line:none;fill:#eeeeee;stroke:none;stroke-width:0.3409754"
       font-size="24px"
       font-style="normal"
       font-weight="normal"
       text-decoration="none"
       x="69.043137"
       y="103.70839"
       id="text4168"
       transform="scale(1.0027179,0.99728951)">UNREGISTERED</text>
    <text
       style="font-style:normal;font-weight:normal;font-size:8.18340969px;font-family:Arial;text-decoration:none;text-decoration-line:none;fill:#eeeeee;stroke:none;stroke-width:0.3409754"
       font-size="24px"
       font-style="normal"
       font-weight="normal"
       text-decoration="none"
       x="69.043137"
       y="113.93765"
       id="text4170"
       transform="scale(1.0027179,0.99728951)">UNREGISTERED</text>
    <text
       style="font-style:normal;font-weight:normal;font-size:8.18340969px;font-family:Arial;text-decoration:none;text-decoration-line:none;fill:#eeeeee;stroke:none;stroke-width:0.3409754"
       font-size="24px"
       font-style="normal"
       font-weight="normal"
       text-decoration="none"
       x="69.043137"
       y="134.39618"
       id="text4174"
       transform="scale(1.0027179,0.99728951)">UNREGISTERED</text>
    <g
       id="g5121"
       transform="matrix(1.0442643,0,0,0.82131502,-1.7901836,5.2470082)">
      <g
         id="g4222"
         transform="matrix(0.34185849,0,0,0.38408436,-14.861453,-9.6019008)">
        <path
           id="path4220"
           stroke-miterlimit="10"
           d="M 112,64 H 607 V 511 H 112 Z"
           inkscape:connector-curvature="0"
           style="fill:none;stroke:#000000;stroke-miterlimit:10" />
      </g>
    </g>
    <g
       transform="matrix(0.34190212,0,0,0.34005119,-14.877137,-16.950827)"
       id="g4230">
      <g
         id="g4228">
        <path
           style="fill:none;stroke:none"
           inkscape:connector-curvature="0"
           d=""
           id="path4224" />
        <text
           style="font-style:normal;font-weight:bold;font-size:13px;font-family:Arial;text-decoration:none;text-decoration-line:none;fill:#000000;stroke:none"
           font-size="13px"
           font-style="normal"
           font-weight="bold"
           text-decoration="none"
           x="272.78784"
           y="83.5"
           id="text4226">Système de la machine à jeux</text>
      </g>
    </g>
    <g
       id="g5117"
       onclick="window.open('http://fr.dbpedia.org/sparql?default-graph-uri=&amp;query=SELECT+*+WHERE+%7B%3Chttp%3A%2F%2Ffr.dbpedia.org%2Fresource%2FJeu%3E+%3Fpre+%3Fobjet+%7D&amp;format=text%2Fhtml&amp;timeout=0&amp;debug=on', '_blank');"
       transform="matrix(1,0,0,0.84445796,0,-7.8280519)">
      <g
         id="g4234"
         transform="matrix(0.34190212,0,0,0.40268575,-14.877137,-10.803113)">
        <path
           id="path4232"
           d="m 73.491626,201.68 c 0,-4.79383 3.885842,-8.68 8.679272,-8.68 4.793431,0 8.679273,3.88617 8.679273,8.68 0,4.79383 -3.885842,8.68 -8.679273,8.68 -4.79343,0 -8.679272,-3.88617 -8.679272,-8.68 z"
           inkscape:connector-curvature="0"
           style="fill:#ffffff;stroke:none" />
      </g>
      <g
         id="g4238"
         transform="matrix(0.34190212,0,0,0.40268575,-14.877137,-10.803113)">
        <path
           id="path4236"
           stroke-miterlimit="10"
           d="m 73.491626,201.68 c 0,-4.79383 3.885842,-8.68 8.679272,-8.68 4.793431,0 8.679273,3.88617 8.679273,8.68 0,4.79383 -3.885842,8.68 -8.679273,8.68 -4.79343,0 -8.679272,-3.88617 -8.679272,-8.68 z"
           inkscape:connector-curvature="0"
           style="fill:none;stroke:#000000;stroke-miterlimit:10" />
      </g>
      <g
         id="g4242"
         transform="matrix(0.34190212,0,0,0.40268575,-14.877137,-10.803113)">
        <path
           id="path4240"
           stroke-miterlimit="10"
           d="m 82.170898,210.36 v 17.28"
           inkscape:connector-curvature="0"
           style="fill:none;stroke:#000000;stroke-miterlimit:10" />
      </g>
      <g
         id="g4246"
         transform="matrix(0.34190212,0,0,0.40268575,-14.877137,-10.803113)">
        <path
           id="path4244"
           stroke-miterlimit="10"
           d="M 72.98108,216.84 H 91.360717"
           inkscape:connector-curvature="0"
           style="fill:none;stroke:#000000;stroke-miterlimit:10" />
      </g>
      <g
         id="g4250"
         transform="matrix(0.34190212,0,0,0.40268575,-14.877137,-10.803113)">
        <path
           id="path4248"
           stroke-miterlimit="10"
           d="M 82.170898,227.64 69.407262,245"
           inkscape:connector-curvature="0"
           style="fill:none;stroke:#000000;stroke-miterlimit:10" />
      </g>
      <g
         id="g4254"
         transform="matrix(0.34190212,0,0,0.40268575,-14.877137,-10.803113)">
        <path
           id="path4252"
           stroke-miterlimit="10"
           d="M 82.170898,227.64 94.934535,245"
           inkscape:connector-curvature="0"
           style="fill:none;stroke:#000000;stroke-miterlimit:10" />
      </g>
      <g
         id="g4262"
         transform="matrix(0.34190212,0,0,0.40268575,-14.877137,-13.573635)">
        <g
           id="g4260">
          <path
             id="path4256"
             d=""
             inkscape:connector-curvature="0"
             style="fill:none;stroke:none" />
          <text
             id="text4258"
             y="265.5"
             x="62.296387"
             text-decoration="none"
             font-weight="bold"
             font-style="normal"
             font-size="13px"
             style="font-style:normal;font-weight:bold;font-size:13px;font-family:Arial;text-decoration:none;text-decoration-line:none;fill:#000000;stroke:none">Joueur</text>
        </g>
      </g>
    </g>
    <g
       transform="matrix(0.34190212,0,0,0.34005119,-14.877137,-16.950827)"
       id="g4266">
      <path
         style="opacity:0.2;fill:#c0c0c0;stroke:none"
         inkscape:connector-curvature="0"
         d="m 207,144 c 0,-9.38884 26.4152,-17 59,-17 32.5848,0 59,7.61116 59,17 0,9.38884 -26.4152,17 -59,17 -32.5848,0 -59,-7.61116 -59,-17 z"
         id="path4264" />
    </g>
    <g
       id="g5643"
       onclick="window.open('http://fr.dbpedia.org/sparql?default-graph-uri=&amp;query=SELECT+*+WHERE+%7B%3Chttp%3A%2F%2Ffr.dbpedia.org%2Fresource%2FJeu%3E+%3Fpre+%3Fobjet+%7D&amp;format=text%2Fhtml&amp;timeout=0&amp;debug=on', '_blank');">
      <g
         id="g4270"
         transform="matrix(0.34190212,0,0,0.34005119,-14.877137,-16.950827)">
        <path
           id="path4268"
           d="m 200,137 c 0,-9.38884 26.4152,-17 59,-17 32.5848,0 59,7.61116 59,17 0,9.38884 -26.4152,17 -59,17 -32.5848,0 -59,-7.61116 -59,-17 z"
           inkscape:connector-curvature="0"
           style="fill:#ffffff;stroke:none" />
      </g>
      <g
         id="g4274"
         transform="matrix(0.34190212,0,0,0.34005119,-14.877137,-16.950827)">
        <path
           id="path4272"
           stroke-miterlimit="10"
           d="m 200,137 c 0,-9.38884 26.4152,-17 59,-17 32.5848,0 59,7.61116 59,17 0,9.38884 -26.4152,17 -59,17 -32.5848,0 -59,-7.61116 -59,-17 z"
           inkscape:connector-curvature="0"
           style="fill:none;stroke:#000000;stroke-miterlimit:10" />
      </g>
      <g
         id="g4282"
         transform="matrix(0.34190212,0,0,0.34005119,-14.877137,-16.950827)">
        <g
           id="g4280">
          <path
             id="path4276"
             d=""
             inkscape:connector-curvature="0"
             style="fill:none;stroke:none" />
          <text
             id="text4278"
             y="144"
             x="225.04321"
             text-decoration="none"
             font-weight="bold"
             font-style="normal"
             font-size="13px"
             style="font-style:normal;font-weight:bold;font-size:13px;font-family:Arial;text-decoration:none;text-decoration-line:none;fill:#000000;stroke:none">Choisir jeux</text>
        </g>
      </g>
    </g>
    <g
       transform="matrix(0.34190212,0,0,0.34005119,-14.877137,-16.950827)"
       id="g4306">
      <path
         style="opacity:0.2;fill:#c0c0c0;stroke:none"
         inkscape:connector-curvature="0"
         d="m 423,152 c 0,-9.38884 28.20606,-17 63,-17 34.79394,0 63,7.61116 63,17 0,9.38884 -28.20606,17 -63,17 -34.79394,0 -63,-7.61116 -63,-17 z"
         id="path4304" />
    </g>
    <g
       id="g5577"
       onclick="window.open('http://fr.dbpedia.org/sparql?default-graph-uri=&amp;query=SELECT+*+WHERE+%7B%3Chttp%3A%2F%2Ffr.dbpedia.org%2Fresource%2FPi%C3%A8ce%3E+%3Fpre+%3Fobjet+%7D&amp;format=text%2Fhtml&amp;timeout=0&amp;debug=on', '_blank');">
      <g
         id="g4310"
         transform="matrix(0.34190212,0,0,0.34005119,-14.877137,-16.950827)">
        <path
           id="path4308"
           d="m 416,145 c 0,-9.38884 28.20606,-17 63,-17 34.79394,0 63,7.61116 63,17 0,9.38884 -28.20606,17 -63,17 -34.79394,0 -63,-7.61116 -63,-17 z"
           inkscape:connector-curvature="0"
           style="fill:#ffffff;stroke:none" />
      </g>
      <g
         id="g4314"
         transform="matrix(0.34190212,0,0,0.34005119,-14.877137,-16.950827)">
        <path
           id="path4312"
           stroke-miterlimit="10"
           d="m 416,145 c 0,-9.38884 28.20606,-17 63,-17 34.79394,0 63,7.61116 63,17 0,9.38884 -28.20606,17 -63,17 -34.79394,0 -63,-7.61116 -63,-17 z"
           inkscape:connector-curvature="0"
           style="fill:none;stroke:#000000;stroke-miterlimit:10" />
      </g>
      <g
         id="g4322"
         transform="matrix(0.34190212,0,0,0.34005119,-14.877137,-16.950827)">
        <g
           id="g4320">
          <path
             id="path4316"
             d=""
             inkscape:connector-curvature="0"
             style="fill:none;stroke:none" />
          <text
             id="text4318"
             y="152"
             x="441.42505"
             text-decoration="none"
             font-weight="bold"
             font-style="normal"
             font-size="13px"
             style="font-style:normal;font-weight:bold;font-size:13px;font-family:Arial;text-decoration:none;text-decoration-line:none;fill:#000000;stroke:none">Insérer pièce</text>
        </g>
      </g>
    </g>
    <g
       transform="matrix(0.34190212,0,0,0.34005119,-14.877137,-16.950827)"
       id="g4326">
      <path
         style="opacity:0.2;fill:#c0c0c0;stroke:none"
         inkscape:connector-curvature="0"
         d="m 119,330.5 c 0,-10.76955 32.01164,-19.5 71.5,-19.5 39.48836,0 71.5,8.73045 71.5,19.5 0,10.76955 -32.01164,19.5 -71.5,19.5 -39.48836,0 -71.5,-8.73045 -71.5,-19.5 z"
         id="path4324" />
    </g>
    <g
       id="g5589">
      <g
         id="g4354"
         transform="matrix(0.34190212,0,0,0.34005119,-14.877137,-16.950827)">
        <path
           id="path4352"
           stroke-miterlimit="10"
           d="m 216,364 c 0,-11.0457 46.33852,-20 103.5,-20 57.16148,0 103.5,8.9543 103.5,20 0,11.0457 -46.33852,20 -103.5,20 C 262.33852,384 216,375.0457 216,364 Z"
           inkscape:connector-curvature="0"
           style="fill:none;stroke:#000000;stroke-miterlimit:10" />
      </g>
    </g>
    <g
       id="g5675"
       onclick="window.open('http://fr.dbpedia.org/sparql?default-graph-uri=&amp;query=SELECT+*+WHERE+%7B%3Chttp%3A%2F%2Ffr.dbpedia.org%2Fresource%2FDonn%C3%A9e%3E+%3Fpre+%3Fobjet+%7D&amp;format=text%2Fhtml&amp;timeout=0&amp;debug=on', '_blank');">
      <g
         onclick="window.open('http://fr.dbpedia.org/sparql?default-graph-uri=&amp;query=SELECT+*+WHERE+%7B%3Chttp%3A%2F%2Ffr.dbpedia.org%2Fresource%2FDonn%C3%A9e%3E+%3Fpre+%3Fobjet+%7D&amp;format=text%2Fhtml&amp;timeout=0&amp;debug=on', '_blank');"
         id="g4346"
         transform="matrix(0.34190212,0,0,0.34005119,-17.270452,-19.331185)">
        <path
           id="path4344"
           d="m 223,371 c 0,-11.0457 46.33852,-20 103.5,-20 57.16148,0 103.5,8.9543 103.5,20 0,11.0457 -46.33852,20 -103.5,20 C 269.33852,391 223,382.0457 223,371 Z"
           inkscape:connector-curvature="0"
           style="opacity:0.2;fill:#c0c0c0;stroke:none" />
      </g>
      <g
         id="g4350"
         transform="matrix(0.34190212,0,0,0.34005119,-14.877137,-16.950827)">
        <path
           id="path4348"
           d="m 216,364 c 0,-11.0457 46.33852,-20 103.5,-20 57.16148,0 103.5,8.9543 103.5,20 0,11.0457 -46.33852,20 -103.5,20 C 262.33852,384 216,375.0457 216,364 Z"
           inkscape:connector-curvature="0"
           style="fill:#ffffff;stroke:none" />
      </g>
      <g
         id="g4362"
         transform="matrix(0.34190212,0,0,0.34005119,-14.877137,-16.950827)">
        <g
           id="g4360">
          <path
             id="path4356"
             d=""
             inkscape:connector-curvature="0"
             style="fill:none;stroke:none" />
          <text
             id="text4358"
             y="371"
             x="255.89966"
             text-decoration="none"
             font-weight="bold"
             font-style="normal"
             font-size="13px"
             style="font-style:normal;font-weight:bold;font-size:13px;font-family:Arial;text-decoration:none;text-decoration-line:none;fill:#000000;stroke:none">entrer données joueur</text>
        </g>
      </g>
    </g>
    <g
       transform="matrix(0.34190212,0,0,0.34005119,-14.877137,-16.950827)"
       id="g4386">
      <path
         style="opacity:0.2;fill:#c0c0c0;stroke:none"
         inkscape:connector-curvature="0"
         d="m 503,270.5 c 0,-12.97869 23.50505,-23.5 52.5,-23.5 28.99495,0 52.5,10.52131 52.5,23.5 0,12.97869 -23.50505,23.5 -52.5,23.5 -28.99495,0 -52.5,-10.52131 -52.5,-23.5 z"
         id="path4384" />
    </g>
    <g
       id="g5613"
       onclick="window.open('http://fr.dbpedia.org/sparql?default-graph-uri=&amp;query=SELECT+*+WHERE+%7B%3Chttp%3A%2F%2Ffr.dbpedia.org%2Fresource%2FGame_over%3E+%3Fpre+%3Fobjet+%7D&amp;format=text%2Fhtml&amp;timeout=0&amp;debug=on', '_blank');">
      <g
         id="g4390"
         transform="matrix(0.34190212,0,0,0.34005119,-14.877137,-16.950827)">
        <path
           id="path4388"
           d="m 496,263.5 c 0,-12.97869 23.50505,-23.5 52.5,-23.5 28.99495,0 52.5,10.52131 52.5,23.5 0,12.97869 -23.50505,23.5 -52.5,23.5 -28.99495,0 -52.5,-10.52131 -52.5,-23.5 z"
           inkscape:connector-curvature="0"
           style="fill:#ffffff;stroke:none" />
      </g>
      <g
         id="g4394"
         transform="matrix(0.34190212,0,0,0.34005119,-14.877137,-16.950827)">
        <path
           id="path4392"
           stroke-miterlimit="10"
           d="m 496,263.5 c 0,-12.97869 23.50505,-23.5 52.5,-23.5 28.99495,0 52.5,10.52131 52.5,23.5 0,12.97869 -23.50505,23.5 -52.5,23.5 -28.99495,0 -52.5,-10.52131 -52.5,-23.5 z"
           inkscape:connector-curvature="0"
           style="fill:none;stroke:#000000;stroke-miterlimit:10" />
      </g>
      <g
         id="g4402"
         transform="matrix(0.34190212,0,0,0.34005119,-14.877137,-16.950827)">
        <g
           id="g4400">
          <path
             id="path4396"
             d=""
             inkscape:connector-curvature="0"
             style="fill:none;stroke:none" />
          <text
             id="text4398"
             y="270.5"
             x="517.79004"
             text-decoration="none"
             font-weight="bold"
             font-style="normal"
             font-size="13px"
             style="font-style:normal;font-weight:bold;font-size:13px;font-family:Arial;text-decoration:none;text-decoration-line:none;fill:#000000;stroke:none">game over</text>
        </g>
      </g>
    </g>
    <g
       transform="matrix(0.34190212,0,0,0.34005119,-14.877137,-16.950827)"
       id="g4406">
      <path
         style="opacity:0.2;fill:#c0c0c0;stroke:none"
         inkscape:connector-curvature="0"
         d="m 431,352 c 0,-9.38884 22.60962,-17 50.5,-17 27.89038,0 50.5,7.61116 50.5,17 0,9.38884 -22.60962,17 -50.5,17 -27.89038,0 -50.5,-7.61116 -50.5,-17 z"
         id="path4404" />
    </g>
    <g
       id="g5623"
       onclick="window.open('http://fr.dbpedia.org/sparql?default-graph-uri=&amp;query=SELECT+*+WHERE+%7B%3Chttp%3A%2F%2Ffr.dbpedia.org%2Fresource%2FPartie%3E+%3Fpre+%3Fobjet+%7D&amp;format=text%2Fhtml&amp;timeout=0&amp;debug=on', '_blank');">
      <g
         id="g4410"
         transform="matrix(0.34190212,0,0,0.34005119,-14.877137,-16.950827)">
        <path
           id="path4408"
           d="m 424,345 c 0,-9.38884 22.60962,-17 50.5,-17 27.89038,0 50.5,7.61116 50.5,17 0,9.38884 -22.60962,17 -50.5,17 -27.89038,0 -50.5,-7.61116 -50.5,-17 z"
           inkscape:connector-curvature="0"
           style="fill:#ffffff;stroke:none" />
      </g>
      <g
         id="g4414"
         transform="matrix(0.34190212,0,0,0.34005119,-14.877137,-16.950827)">
        <path
           id="path4412"
           stroke-miterlimit="10"
           d="m 424,345 c 0,-9.38884 22.60962,-17 50.5,-17 27.89038,0 50.5,7.61116 50.5,17 0,9.38884 -22.60962,17 -50.5,17 -27.89038,0 -50.5,-7.61116 -50.5,-17 z"
           inkscape:connector-curvature="0"
           style="fill:none;stroke:#000000;stroke-miterlimit:10" />
      </g>
      <g
         id="g4422"
         transform="matrix(0.34190212,0,0,0.34005119,-14.877137,-16.950827)">
        <g
           id="g4420">
          <path
             id="path4416"
             d=""
             inkscape:connector-curvature="0"
             style="fill:none;stroke:none" />
          <text
             id="text4418"
             y="352"
             x="449.56958"
             text-decoration="none"
             font-weight="bold"
             font-style="normal"
             font-size="13px"
             style="font-style:normal;font-weight:bold;font-size:13px;font-family:Arial;text-decoration:none;text-decoration-line:none;fill:#000000;stroke:none">fin partie</text>
        </g>
      </g>
    </g>
    <g
       transform="matrix(0.34190212,0,0,0.34005119,-14.877137,-16.950827)"
       id="g4426">
      <path
         style="opacity:0.2;fill:#c0c0c0;stroke:none"
         inkscape:connector-curvature="0"
         d="m 471,424 c 0,-9.38884 29.10149,-17 65,-17 35.89851,0 65,7.61116 65,17 0,9.38884 -29.10149,17 -65,17 -35.89851,0 -65,-7.61116 -65,-17 z"
         id="path4424" />
    </g>
    <g
       id="g5633"
       onclick="window.open('http://fr.dbpedia.org/sparql?default-graph-uri=&amp;query=SELECT+*+WHERE+%7B%3Chttp%3A%2F%2Ffr.dbpedia.org%2Fresource%2FTemps%3E+%3Fpre+%3Fobjet+%7D&amp;format=text%2Fhtml&amp;timeout=0&amp;debug=on', '_blank');">
      <g
         id="g4430"
         transform="matrix(0.34190212,0,0,0.34005119,-14.877137,-16.950827)">
        <path
           id="path4428"
           d="m 464,417 c 0,-9.38884 29.10149,-17 65,-17 35.89851,0 65,7.61116 65,17 0,9.38884 -29.10149,17 -65,17 -35.89851,0 -65,-7.61116 -65,-17 z"
           inkscape:connector-curvature="0"
           style="fill:#ffffff;stroke:none" />
      </g>
      <g
         id="g4434"
         transform="matrix(0.34190212,0,0,0.34005119,-14.877137,-16.950827)">
        <path
           id="path4432"
           stroke-miterlimit="10"
           d="m 464,417 c 0,-9.38884 29.10149,-17 65,-17 35.89851,0 65,7.61116 65,17 0,9.38884 -29.10149,17 -65,17 -35.89851,0 -65,-7.61116 -65,-17 z"
           inkscape:connector-curvature="0"
           style="fill:none;stroke:#000000;stroke-miterlimit:10" />
      </g>
      <g
         id="g4442"
         transform="matrix(0.34190212,0,0,0.34005119,-14.877137,-16.950827)">
        <g
           id="g4440">
          <path
             id="path4436"
             d=""
             inkscape:connector-curvature="0"
             style="fill:none;stroke:none" />
          <text
             id="text4438"
             y="424"
             x="490.3396"
             text-decoration="none"
             font-weight="bold"
             font-style="normal"
             font-size="13px"
             style="font-style:normal;font-weight:bold;font-size:13px;font-family:Arial;text-decoration:none;text-decoration-line:none;fill:#000000;stroke:none">temps écoulé</text>
        </g>
      </g>
    </g>
    <g
       transform="matrix(0.34190212,0,0,0.34005119,-14.877137,-16.950827)"
       id="g4446">
      <path
         style="fill:none;stroke:#000000;stroke-miterlimit:10"
         inkscape:connector-curvature="0"
         d="M 109,216 225,155"
         stroke-miterlimit="10"
         id="path4444" />
    </g>
    <g
       transform="matrix(0.34190212,0,0,0.34005119,-14.877137,-16.950827)"
       id="g4450">
      <path
         style="fill:none;stroke:#000000;stroke-miterlimit:10"
         inkscape:connector-curvature="0"
         d="m 109,234 194,17"
         stroke-miterlimit="10"
         id="path4448" />
    </g>
    <g
       transform="matrix(0.34190212,0,0,0.34005119,-14.877137,-16.950827)"
       id="g4454">
      <path
         style="fill:none;stroke:#000000;stroke-miterlimit:10;stroke-dasharray:3"
         inkscape:connector-curvature="0"
         d="M 348,239 275,155"
         stroke-miterlimit="10"
         id="path4452" />
    </g>
    <g
       transform="matrix(0.34190212,0,0,0.34005119,-14.877137,-16.950827)"
       id="g4458">
      <path
         style="fill:none;stroke:#000000;stroke-miterlimit:10"
         inkscape:connector-curvature="0"
         d="M 284.84361,159.90952 275,155 l 3.48893,10.43204"
         stroke-miterlimit="10"
         id="path4456" />
    </g>
    <g
       transform="matrix(0.34190212,0,0,0.34005119,-14.877137,-16.950827)"
       id="g4466">
      <g
         id="g4464">
        <path
           style="fill:none;stroke:none"
           inkscape:connector-curvature="0"
           d=""
           id="path4460" />
        <text
           style="font-style:normal;font-weight:normal;font-size:13px;font-family:Arial;text-decoration:none;text-decoration-line:none;fill:#000000;stroke:none"
           font-size="13px"
           font-style="normal"
           font-weight="normal"
           text-decoration="none"
           x="260.5"
           y="222.5"
           id="text4462">«include»</text>
      </g>
    </g>
    <g
       transform="matrix(0.34190212,0,0,0.34005119,-14.877137,-16.950827)"
       id="g4470">
      <path
         style="fill:none;stroke:#000000;stroke-miterlimit:10;stroke-dasharray:3"
         inkscape:connector-curvature="0"
         d="m 382,239 79,-76"
         stroke-miterlimit="10"
         id="path4468" />
    </g>
    <g
       transform="matrix(0.34190212,0,0,0.34005119,-14.877137,-16.950827)"
       id="g4474">
      <path
         style="fill:none;stroke:#000000;stroke-miterlimit:10"
         inkscape:connector-curvature="0"
         d="M 456.59461,173.07931 461,163 l -10.24223,4.01207"
         stroke-miterlimit="10"
         id="path4472" />
    </g>
    <g
       transform="matrix(0.34190212,0,0,0.34005119,-14.877137,-16.950827)"
       id="g4482">
      <g
         id="g4480">
        <path
           style="fill:none;stroke:none"
           inkscape:connector-curvature="0"
           d=""
           id="path4476" />
        <text
           style="font-style:normal;font-weight:normal;font-size:13px;font-family:Arial;text-decoration:none;text-decoration-line:none;fill:#000000;stroke:none"
           font-size="13px"
           font-style="normal"
           font-weight="normal"
           text-decoration="none"
           x="372.5"
           y="185.5"
           id="text4478">«include»</text>
      </g>
    </g>
    <g
       transform="matrix(0.34190212,0,0,0.34005119,-14.877137,-16.950827)"
       id="g4486">
      <path
         style="fill:none;stroke:#000000;stroke-miterlimit:10;stroke-dasharray:3"
         inkscape:connector-curvature="0"
         d="m 356,275 -28,68"
         stroke-miterlimit="10"
         id="path4484" />
    </g>
    <g
       transform="matrix(0.34190212,0,0,0.34005119,-14.877137,-16.950827)"
       id="g4490">
      <path
         style="fill:none;stroke:#000000;stroke-miterlimit:10"
         inkscape:connector-curvature="0"
         d="M 327.97699,332.00002 328,343 l 7.76189,-7.79443"
         stroke-miterlimit="10"
         id="path4488" />
    </g>
    <g
       transform="matrix(0.34190212,0,0,0.34005119,-14.877137,-16.950827)"
       id="g4498">
      <g
         id="g4496">
        <path
           style="fill:none;stroke:none"
           inkscape:connector-curvature="0"
           d=""
           id="path4492" />
        <text
           style="font-style:normal;font-weight:normal;font-size:13px;font-family:Arial;text-decoration:none;text-decoration-line:none;fill:#000000;stroke:none"
           font-size="13px"
           font-style="normal"
           font-weight="normal"
           text-decoration="none"
           x="341.5"
           y="326.5"
           id="text4494">«include»</text>
      </g>
    </g>
    <g
       transform="matrix(0.34190212,0,0,0.34005119,-14.877137,-16.950827)"
       id="g4502">
      <path
         style="fill:none;stroke:#000000;stroke-miterlimit:10;stroke-dasharray:3"
         inkscape:connector-curvature="0"
         d="m 315,275 -77,28"
         stroke-miterlimit="10"
         id="path4500" />
    </g>
    <g
       id="g5665"
       onclick="window.open('http://fr.dbpedia.org/sparql?default-graph-uri=&amp;query=SELECT+*+WHERE+%7B%3Chttp%3A%2F%2Ffr.dbpedia.org%2Fresource%2FPseudonyme%3E+%3Fpre+%3Fobjet+%7D&amp;format=text%2Fhtml&amp;timeout=0&amp;debug=on', '_blank');">
      <g
         id="g4330"
         transform="matrix(0.34190212,0,0,0.34005119,-14.877137,-16.950827)">
        <path
           id="path4328"
           d="m 112,323.5 c 0,-10.76955 32.01164,-19.5 71.5,-19.5 39.48836,0 71.5,8.73045 71.5,19.5 0,10.76955 -32.01164,19.5 -71.5,19.5 -39.48836,0 -71.5,-8.73045 -71.5,-19.5 z"
           inkscape:connector-curvature="0"
           style="fill:#ffffff;stroke:none" />
      </g>
      <g
         onclick="window.open('http://fr.dbpedia.org/sparql?default-graph-uri=&amp;query=SELECT+*+WHERE+%7B%3Chttp%3A%2F%2Ffr.dbpedia.org%2Fresource%2FPseudonyme%3E+%3Fpre+%3Fobjet+%7D&amp;format=text%2Fhtml&amp;timeout=0&amp;debug=on', '_blank');"
         id="g5581">
        <g
           transform="matrix(0.34190212,0,0,0.34005119,-14.877137,-16.950827)"
           id="g4334">
          <path
             style="fill:none;stroke:#000000;stroke-miterlimit:10"
             inkscape:connector-curvature="0"
             d="m 112,323.5 c 0,-10.76955 32.01164,-19.5 71.5,-19.5 39.48836,0 71.5,8.73045 71.5,19.5 0,10.76955 -32.01164,19.5 -71.5,19.5 -39.48836,0 -71.5,-8.73045 -71.5,-19.5 z"
             stroke-miterlimit="10"
             id="path4332" />
        </g>
      </g>
      <g
         id="g5651">
        <g
           transform="matrix(0.34190212,0,0,0.34005119,-14.877137,-16.950827)"
           id="g4342">
          <g
             id="g4340">
            <path
               style="fill:none;stroke:none"
               inkscape:connector-curvature="0"
               d=""
               id="path4336" />
            <text
               style="font-style:normal;font-weight:bold;font-size:13px;font-family:Arial;text-decoration:none;text-decoration-line:none;fill:#000000;stroke:none"
               font-size="13px"
               font-style="normal"
               font-weight="bold"
               text-decoration="none"
               x="141.58643"
               y="330.5"
               id="text4338">choisir pseudo</text>
          </g>
        </g>
        <g
           transform="matrix(0.34190212,0,0,0.34005119,-14.877137,-16.950827)"
           id="g4506">
          <path
             style="fill:none;stroke:#000000;stroke-miterlimit:10"
             inkscape:connector-curvature="0"
             d="M 246.11224,295.5709 238,303 l 10.98939,0.48305"
             stroke-miterlimit="10"
             id="path4504" />
        </g>
      </g>
    </g>
    <g
       transform="matrix(0.34190212,0,0,0.34005119,-14.877137,-16.950827)"
       id="g4514">
      <g
         id="g4512">
        <path
           style="fill:none;stroke:none"
           inkscape:connector-curvature="0"
           d=""
           id="path4508" />
        <text
           style="font-style:normal;font-weight:normal;font-size:13px;font-family:Arial;text-decoration:none;text-decoration-line:none;fill:#000000;stroke:none"
           font-size="13px"
           font-style="normal"
           font-weight="normal"
           text-decoration="none"
           x="259.5"
           y="323.5"
           id="text4510">«extend»</text>
      </g>
    </g>
    <g
       transform="matrix(0.34190212,0,0,0.34005119,-14.877137,-16.950827)"
       id="g4518">
      <path
         style="fill:none;stroke:#000000;stroke-miterlimit:10;stroke-dasharray:3"
         inkscape:connector-curvature="0"
         d="m 181,344 -6,79"
         stroke-miterlimit="10"
         id="path4516" />
    </g>
    <g
       id="g5719"
       onclick="window.open('debug=on', '_blank');">
      <g
         id="g4366"
         transform="matrix(0.34190212,0,0,0.34005119,-14.877137,-16.950827)">
        <path
           id="path4364"
           d="m 119,448 c 0,-9.38884 27.9822,-17 62.5,-17 34.5178,0 62.5,7.61116 62.5,17 0,9.38884 -27.9822,17 -62.5,17 -34.5178,0 -62.5,-7.61116 -62.5,-17 z"
           inkscape:connector-curvature="0"
           style="opacity:0.2;fill:#c0c0c0;stroke:none" />
      </g>
      <g
         onclick="window.open('http://fr.dbpedia.org/sparql?default-graph-uri=&amp;query=SELECT+*+WHERE+%7B%3Chttp%3A%2F%2Ffr.dbpedia.org%2Fresource%2FPhotographie%3E+%3Fpre+%3Fobjet+%7D&amp;format=text%2Fhtml&amp;timeout=0&amp;debug=on', '_blank');"
         id="g5702">
        <g
           id="g5688"
           onclick="window.open('Photographie', '_blank');">
          <g
             id="g4370"
             transform="matrix(0.34190212,0,0,0.34005119,-14.877137,-16.950827)">
            <path
               id="path4368"
               d="m 112,441 c 0,-9.38884 27.9822,-17 62.5,-17 34.5178,0 62.5,7.61116 62.5,17 0,9.38884 -27.9822,17 -62.5,17 -34.5178,0 -62.5,-7.61116 -62.5,-17 z"
               inkscape:connector-curvature="0"
               style="fill:#ffffff;stroke:none" />
          </g>
          <g
             onclick="window.open('http://fr.dbpedia.org/sparql?default-graph-uri=&amp;query=SELECT+*+WHERE+%7B%3Chttp%3A%2F%2Ffr.dbpedia.org%2Fresource%2FPhotographie%3E+%3Fpre+%3Fobjet+%7D&amp;format=text%2Fhtml&amp;timeout=0&amp;debug=on', '_blank');"
             id="g5585">
            <g
               transform="matrix(0.34190212,0,0,0.34005119,-14.877137,-16.950827)"
               id="g4374">
              <path
                 style="fill:none;stroke:#000000;stroke-miterlimit:10"
                 inkscape:connector-curvature="0"
                 d="m 112,441 c 0,-9.38884 27.9822,-17 62.5,-17 34.5178,0 62.5,7.61116 62.5,17 0,9.38884 -27.9822,17 -62.5,17 -34.5178,0 -62.5,-7.61116 -62.5,-17 z"
                 stroke-miterlimit="10"
                 id="path4372" />
            </g>
          </g>
          <g
             id="g4382"
             transform="matrix(0.34190212,0,0,0.34005119,-14.877137,-16.950827)">
            <g
               id="g4380">
              <path
                 id="path4376"
                 d=""
                 inkscape:connector-curvature="0"
                 style="fill:none;stroke:none" />
              <text
                 id="text4378"
                 y="448"
                 x="138.00732"
                 text-decoration="none"
                 font-weight="bold"
                 font-style="normal"
                 font-size="13px"
                 style="font-style:normal;font-weight:bold;font-size:13px;font-family:Arial;text-decoration:none;text-decoration-line:none;fill:#000000;stroke:none">mettre photo</text>
            </g>
          </g>
          <g
             id="g4522"
             transform="matrix(0.34190212,0,0,0.34005119,-14.877137,-16.950827)">
            <path
               id="path4520"
               stroke-miterlimit="10"
               d="M 171.5722,412.54772 175,423 l 4.96706,-9.8147"
               inkscape:connector-curvature="0"
               style="fill:none;stroke:#000000;stroke-miterlimit:10" />
          </g>
        </g>
      </g>
    </g>
    <g
       transform="matrix(0.34190212,0,0,0.34005119,-14.877137,-16.950827)"
       id="g4530">
      <g
         id="g4528">
        <path
           style="fill:none;stroke:none"
           inkscape:connector-curvature="0"
           d=""
           id="path4524" />
        <text
           style="font-style:normal;font-weight:normal;font-size:13px;font-family:Arial;text-decoration:none;text-decoration-line:none;fill:#000000;stroke:none"
           font-size="13px"
           font-style="normal"
           font-weight="normal"
           text-decoration="none"
           x="180.5"
           y="391.5"
           id="text4526">«extend»</text>
      </g>
    </g>
    <g
       transform="matrix(0.34190212,0,0,0.34005119,-14.877137,-16.950827)"
       id="g4534">
      <path
         style="fill:none;stroke:#000000;stroke-miterlimit:10;stroke-dasharray:3"
         inkscape:connector-curvature="0"
         d="M 452,327 387,275"
         stroke-miterlimit="10"
         id="path4532" />
    </g>
    <g
       id="g5603"
       onclick="window.open('http://fr.dbpedia.org/sparql?default-graph-uri=&amp;query=SELECT+*+WHERE+%7B%3Chttp%3A%2F%2Ffr.dbpedia.org%2Fresource%2FJeu%3E+%3Fpre+%3Fobjet+%7D&amp;format=text%2Fhtml&amp;timeout=0&amp;debug=on', '_blank');">
      <g
         id="g4286"
         transform="matrix(0.34190212,0,0,0.34005119,-14.877137,-16.950827)">
        <path
           id="path4284"
           d="m 311,264 c 0,-9.38884 27.08677,-17 60.5,-17 33.41323,0 60.5,7.61116 60.5,17 0,9.38884 -27.08677,17 -60.5,17 -33.41323,0 -60.5,-7.61116 -60.5,-17 z"
           inkscape:connector-curvature="0"
           style="opacity:0.2;fill:#c0c0c0;stroke:none" />
      </g>
      <g
         id="g4290"
         transform="matrix(0.34190212,0,0,0.34005119,-14.877137,-16.950827)">
        <path
           id="path4288"
           d="m 304,257 c 0,-9.38884 27.08677,-17 60.5,-17 33.41323,0 60.5,7.61116 60.5,17 0,9.38884 -27.08677,17 -60.5,17 -33.41323,0 -60.5,-7.61116 -60.5,-17 z"
           inkscape:connector-curvature="0"
           style="fill:#ffffff;stroke:none" />
      </g>
      <g
         id="g4294"
         transform="matrix(0.34190212,0,0,0.34005119,-14.877137,-16.950827)">
        <path
           id="path4292"
           stroke-miterlimit="10"
           d="m 304,257 c 0,-9.38884 27.08677,-17 60.5,-17 33.41323,0 60.5,7.61116 60.5,17 0,9.38884 -27.08677,17 -60.5,17 -33.41323,0 -60.5,-7.61116 -60.5,-17 z"
           inkscape:connector-curvature="0"
           style="fill:none;stroke:#000000;stroke-miterlimit:10" />
      </g>
      <g
         id="g4302"
         transform="matrix(0.34190212,0,0,0.34005119,-14.877137,-16.950827)">
        <g
           id="g4300">
          <path
             id="path4296"
             d=""
             inkscape:connector-curvature="0"
             style="fill:none;stroke:none" />
          <text
             id="text4298"
             y="264"
             x="328.72461"
             text-decoration="none"
             font-weight="bold"
             font-style="normal"
             font-size="13px"
             style="font-style:normal;font-weight:bold;font-size:13px;font-family:Arial;text-decoration:none;text-decoration-line:none;fill:#000000;stroke:none">Jouer au jeu</text>
        </g>
      </g>
      <g
         id="g4538"
         transform="matrix(0.34190212,0,0,0.34005119,-14.877137,-16.950827)">
        <path
           id="path4536"
           stroke-miterlimit="10"
           d="M 397.56538,278.06149 387,275 l 5.30605,9.63565"
           inkscape:connector-curvature="0"
           style="fill:none;stroke:#000000;stroke-miterlimit:10" />
      </g>
    </g>
    <g
       transform="matrix(0.34190212,0,0,0.34005119,-14.877137,-16.950827)"
       id="g4546">
      <g
         id="g4544">
        <path
           style="fill:none;stroke:none"
           inkscape:connector-curvature="0"
           d=""
           id="path4540" />
        <text
           style="font-style:normal;font-weight:normal;font-size:13px;font-family:Arial;text-decoration:none;text-decoration-line:none;fill:#000000;stroke:none"
           font-size="13px"
           font-style="normal"
           font-weight="normal"
           text-decoration="none"
           x="407.5"
           y="300.5"
           id="text4542">«extend»</text>
      </g>
    </g>
    <g
       transform="matrix(0.34190212,0,0,0.34005119,-14.877137,-16.950827)"
       id="g4550">
      <path
         style="fill:none;stroke:#000000;stroke-miterlimit:10;stroke-dasharray:3"
         inkscape:connector-curvature="0"
         d="m 474,327 5,-164"
         stroke-miterlimit="10"
         id="path4548" />
    </g>
    <g
       transform="matrix(0.34190212,0,0,0.34005119,-14.877137,-16.950827)"
       id="g4554">
      <path
         style="fill:none;stroke:#000000;stroke-miterlimit:10"
         inkscape:connector-curvature="0"
         d="M 482.89787,173.28623 479,163 l -4.51726,10.02968"
         stroke-miterlimit="10"
         id="path4552" />
    </g>
    <g
       transform="matrix(0.34190212,0,0,0.34005119,-14.877137,-16.950827)"
       id="g4562">
      <g
         id="g4560">
        <path
           style="fill:none;stroke:none"
           inkscape:connector-curvature="0"
           d=""
           id="path4556" />
        <text
           style="font-style:normal;font-weight:normal;font-size:13px;font-family:Arial;text-decoration:none;text-decoration-line:none;fill:#000000;stroke:none"
           font-size="13px"
           font-style="normal"
           font-weight="normal"
           text-decoration="none"
           x="419.5"
           y="249.5"
           id="text4558">«extend»</text>
      </g>
    </g>
    <g
       transform="matrix(0.34190212,0,0,0.34005119,-14.877137,-16.950827)"
       id="g4566">
      <path
         style="fill:none;stroke:#000000;stroke-miterlimit:10;stroke-dasharray:3"
         inkscape:connector-curvature="0"
         d="M 534,239 490,163"
         stroke-miterlimit="10"
         id="path4564" />
    </g>
    <g
       transform="matrix(0.34190212,0,0,0.34005119,-14.877137,-16.950827)"
       id="g4570">
      <path
         style="fill:none;stroke:#000000;stroke-miterlimit:10"
         inkscape:connector-curvature="0"
         d="M 498.7349,169.68592 490,163 l 1.44884,10.90417"
         stroke-miterlimit="10"
         id="path4568" />
    </g>
    <g
       transform="matrix(0.34190212,0,0,0.34005119,-14.877137,-16.950827)"
       id="g4578">
      <g
         id="g4576">
        <path
           style="fill:none;stroke:none"
           inkscape:connector-curvature="0"
           d=""
           id="path4572" />
        <text
           style="font-style:normal;font-weight:normal;font-size:13px;font-family:Arial;text-decoration:none;text-decoration-line:none;fill:#000000;stroke:none"
           font-size="13px"
           font-style="normal"
           font-weight="normal"
           text-decoration="none"
           x="459.5"
           y="222.5"
           id="text4574">«extend»</text>
      </g>
    </g>
    <g
       transform="matrix(0.34190212,0,0,0.34005119,-14.877137,-16.950827)"
       id="g4582">
      <path
         style="fill:none;stroke:#000000;stroke-miterlimit:10"
         inkscape:connector-curvature="0"
         d="M 515,399 488,363"
         stroke-miterlimit="10"
         id="path4580" />
    </g>
    <g
       transform="matrix(0.34190212,0,0,0.34005119,-14.877137,-16.950827)"
       id="g4586">
      <path
         style="fill:#ffffff;stroke:none"
         inkscape:connector-curvature="0"
         d="M 506.93044,374.20886 488,363 l 5.45998,21.3117"
         id="path4584" />
    </g>
    <g
       transform="matrix(0.34190212,0,0,0.34005119,-14.877137,-16.950827)"
       id="g4590">
      <path
         style="fill:none;stroke:#000000;stroke-miterlimit:10"
         inkscape:connector-curvature="0"
         d="M 506.93044,374.20886 488,363 l 5.45998,21.3117 13.47046,-10.10284"
         stroke-miterlimit="10"
         id="path4588" />
    </g>
    <g
       transform="matrix(0.34190212,0,0,0.34005119,-14.877137,-16.950827)"
       id="g4594">
      <path
         style="fill:none;stroke:#000000;stroke-miterlimit:10"
         inkscape:connector-curvature="0"
         d="m 525,288 -35,39"
         stroke-miterlimit="10"
         id="path4592" />
    </g>
    <g
       transform="matrix(0.34190212,0,0,0.34005119,-14.877137,-16.950827)"
       id="g4598">
      <path
         style="fill:#ffffff;stroke:none"
         inkscape:connector-curvature="0"
         d="M 497.3097,306.24986 490,327 l 19.8413,-9.50383"
         id="path4596" />
    </g>
    <g
       transform="matrix(0.34190212,0,0,0.34005119,-14.877137,-16.950827)"
       id="g4602">
      <path
         style="fill:none;stroke:#000000;stroke-miterlimit:10"
         inkscape:connector-curvature="0"
         d="M 497.3097,306.24986 490,327 l 19.8413,-9.50383 -12.5316,-11.24631"
         stroke-miterlimit="10"
         id="path4600" />
    </g>
  </g>
</svg>
