<svg version="1.1" xmlns="http://www.w3.org/2000/svg" xmlns:xlink="http://www.w3.org/1999/xlink" width="1007" height="614"><defs/><g><text fill="#eeeeee" stroke="none" font-family="Arial" font-size="24px" font-style="normal" font-weight="normal" text-decoration="none" x="0" y="0">UNREGISTERED</text><text fill="#eeeeee" stroke="none" font-family="Arial" font-size="24px" font-style="normal" font-weight="normal" text-decoration="none" x="0" y="30">UNREGISTERED</text><text fill="#eeeeee" stroke="none" font-family="Arial" font-size="24px" font-style="normal" font-weight="normal" text-decoration="none" x="0" y="60">UNREGISTERED</text><text fill="#eeeeee" stroke="none" font-family="Arial" font-size="24px" font-style="normal" font-weight="normal" text-decoration="none" x="0" y="90">UNREGISTERED</text><text fill="#eeeeee" stroke="none" font-family="Arial" font-size="24px" font-style="normal" font-weight="normal" text-decoration="none" x="0" y="120">UNREGISTERED</text><text fill="#eeeeee" stroke="none" font-family="Arial" font-size="24px" font-style="normal" font-weight="normal" text-decoration="none" x="0" y="150">UNREGISTERED</text><text fill="#eeeeee" stroke="none" font-family="Arial" font-size="24px" font-style="normal" font-weight="normal" text-decoration="none" x="0" y="180">UNREGISTERED</text><text fill="#eeeeee" stroke="none" font-family="Arial" font-size="24px" font-style="normal" font-weight="normal" text-decoration="none" x="0" y="210">UNREGISTERED</text><text fill="#eeeeee" stroke="none" font-family="Arial" font-size="24px" font-style="normal" font-weight="normal" text-decoration="none" x="0" y="240">UNREGISTERED</text><text fill="#eeeeee" stroke="none" font-family="Arial" font-size="24px" font-style="normal" font-weight="normal" text-decoration="none" x="0" y="270">UNREGISTERED</text><text fill="#eeeeee" stroke="none" font-family="Arial" font-size="24px" font-style="normal" font-weight="normal" text-decoration="none" x="0" y="300">UNREGISTERED</text><text fill="#eeeeee" stroke="none" font-family="Arial" font-size="24px" font-style="normal" font-weight="normal" text-decoration="none" x="0" y="330">UNREGISTERED</text><text fill="#eeeeee" stroke="none" font-family="Arial" font-size="24px" font-style="normal" font-weight="normal" text-decoration="none" x="0" y="360">UNREGISTERED</text><text fill="#eeeeee" stroke="none" font-family="Arial" font-size="24px" font-style="normal" font-weight="normal" text-decoration="none" x="0" y="390">UNREGISTERED</text><text fill="#eeeeee" stroke="none" font-family="Arial" font-size="24px" font-style="normal" font-weight="normal" text-decoration="none" x="0" y="420">UNREGISTERED</text><text fill="#eeeeee" stroke="none" font-family="Arial" font-size="24px" font-style="normal" font-weight="normal" text-decoration="none" x="0" y="450">UNREGISTERED</text><text fill="#eeeeee" stroke="none" font-family="Arial" font-size="24px" font-style="normal" font-weight="normal" text-decoration="none" x="0" y="480">UNREGISTERED</text><text fill="#eeeeee" stroke="none" font-family="Arial" font-size="24px" font-style="normal" font-weight="normal" text-decoration="none" x="0" y="510">UNREGISTERED</text><text fill="#eeeeee" stroke="none" font-family="Arial" font-size="24px" font-style="normal" font-weight="normal" text-decoration="none" x="0" y="540">UNREGISTERED</text><text fill="#eeeeee" stroke="none" font-family="Arial" font-size="24px" font-style="normal" font-weight="normal" text-decoration="none" x="0" y="570">UNREGISTERED</text><text fill="#eeeeee" stroke="none" font-family="Arial" font-size="24px" font-style="normal" font-weight="normal" text-decoration="none" x="0" y="600">UNREGISTERED</text><text fill="#eeeeee" stroke="none" font-family="Arial" font-size="24px" font-style="normal" font-weight="normal" text-decoration="none" x="200" y="0">UNREGISTERED</text><text fill="#eeeeee" stroke="none" font-family="Arial" font-size="24px" font-style="normal" font-weight="normal" text-decoration="none" x="200" y="30">UNREGISTERED</text><text fill="#eeeeee" stroke="none" font-family="Arial" font-size="24px" font-style="normal" font-weight="normal" text-decoration="none" x="200" y="60">UNREGISTERED</text><text fill="#eeeeee" stroke="none" font-family="Arial" font-size="24px" font-style="normal" font-weight="normal" text-decoration="none" x="200" y="90">UNREGISTERED</text><text fill="#eeeeee" stroke="none" font-family="Arial" font-size="24px" font-style="normal" font-weight="normal" text-decoration="none" x="200" y="120">UNREGISTERED</text><text fill="#eeeeee" stroke="none" font-family="Arial" font-size="24px" font-style="normal" font-weight="normal" text-decoration="none" x="200" y="150">UNREGISTERED</text><text fill="#eeeeee" stroke="none" font-family="Arial" font-size="24px" font-style="normal" font-weight="normal" text-decoration="none" x="200" y="180">UNREGISTERED</text><text fill="#eeeeee" stroke="none" font-family="Arial" font-size="24px" font-style="normal" font-weight="normal" text-decoration="none" x="200" y="210">UNREGISTERED</text><text fill="#eeeeee" stroke="none" font-family="Arial" font-size="24px" font-style="normal" font-weight="normal" text-decoration="none" x="200" y="240">UNREGISTERED</text><text fill="#eeeeee" stroke="none" font-family="Arial" font-size="24px" font-style="normal" font-weight="normal" text-decoration="none" x="200" y="270">UNREGISTERED</text><text fill="#eeeeee" stroke="none" font-family="Arial" font-size="24px" font-style="normal" font-weight="normal" text-decoration="none" x="200" y="300">UNREGISTERED</text><text fill="#eeeeee" stroke="none" font-family="Arial" font-size="24px" font-style="normal" font-weight="normal" text-decoration="none" x="200" y="330">UNREGISTERED</text><text fill="#eeeeee" stroke="none" font-family="Arial" font-size="24px" font-style="normal" font-weight="normal" text-decoration="none" x="200" y="360">UNREGISTERED</text><text fill="#eeeeee" stroke="none" font-family="Arial" font-size="24px" font-style="normal" font-weight="normal" text-decoration="none" x="200" y="390">UNREGISTERED</text><text fill="#eeeeee" stroke="none" font-family="Arial" font-size="24px" font-style="normal" font-weight="normal" text-decoration="none" x="200" y="420">UNREGISTERED</text><text fill="#eeeeee" stroke="none" font-family="Arial" font-size="24px" font-style="normal" font-weight="normal" text-decoration="none" x="200" y="450">UNREGISTERED</text><text fill="#eeeeee" stroke="none" font-family="Arial" font-size="24px" font-style="normal" font-weight="normal" text-decoration="none" x="200" y="480">UNREGISTERED</text><text fill="#eeeeee" stroke="none" font-family="Arial" font-size="24px" font-style="normal" font-weight="normal" text-decoration="none" x="200" y="510">UNREGISTERED</text><text fill="#eeeeee" stroke="none" font-family="Arial" font-size="24px" font-style="normal" font-weight="normal" text-decoration="none" x="200" y="540">UNREGISTERED</text><text fill="#eeeeee" stroke="none" font-family="Arial" font-size="24px" font-style="normal" font-weight="normal" text-decoration="none" x="200" y="570">UNREGISTERED</text><text fill="#eeeeee" stroke="none" font-family="Arial" font-size="24px" font-style="normal" font-weight="normal" text-decoration="none" x="200" y="600">UNREGISTERED</text><text fill="#eeeeee" stroke="none" font-family="Arial" font-size="24px" font-style="normal" font-weight="normal" text-decoration="none" x="400" y="0">UNREGISTERED</text><text fill="#eeeeee" stroke="none" font-family="Arial" font-size="24px" font-style="normal" font-weight="normal" text-decoration="none" x="400" y="30">UNREGISTERED</text><text fill="#eeeeee" stroke="none" font-family="Arial" font-size="24px" font-style="normal" font-weight="normal" text-decoration="none" x="400" y="60">UNREGISTERED</text><text fill="#eeeeee" stroke="none" font-family="Arial" font-size="24px" font-style="normal" font-weight="normal" text-decoration="none" x="400" y="90">UNREGISTERED</text><text fill="#eeeeee" stroke="none" font-family="Arial" font-size="24px" font-style="normal" font-weight="normal" text-decoration="none" x="400" y="120">UNREGISTERED</text><text fill="#eeeeee" stroke="none" font-family="Arial" font-size="24px" font-style="normal" font-weight="normal" text-decoration="none" x="400" y="150">UNREGISTERED</text><text fill="#eeeeee" stroke="none" font-family="Arial" font-size="24px" font-style="normal" font-weight="normal" text-decoration="none" x="400" y="180">UNREGISTERED</text><text fill="#eeeeee" stroke="none" font-family="Arial" font-size="24px" font-style="normal" font-weight="normal" text-decoration="none" x="400" y="210">UNREGISTERED</text><text fill="#eeeeee" stroke="none" font-family="Arial" font-size="24px" font-style="normal" font-weight="normal" text-decoration="none" x="400" y="240">UNREGISTERED</text><text fill="#eeeeee" stroke="none" font-family="Arial" font-size="24px" font-style="normal" font-weight="normal" text-decoration="none" x="400" y="270">UNREGISTERED</text><text fill="#eeeeee" stroke="none" font-family="Arial" font-size="24px" font-style="normal" font-weight="normal" text-decoration="none" x="400" y="300">UNREGISTERED</text><text fill="#eeeeee" stroke="none" font-family="Arial" font-size="24px" font-style="normal" font-weight="normal" text-decoration="none" x="400" y="330">UNREGISTERED</text><text fill="#eeeeee" stroke="none" font-family="Arial" font-size="24px" font-style="normal" font-weight="normal" text-decoration="none" x="400" y="360">UNREGISTERED</text><text fill="#eeeeee" stroke="none" font-family="Arial" font-size="24px" font-style="normal" font-weight="normal" text-decoration="none" x="400" y="390">UNREGISTERED</text><text fill="#eeeeee" stroke="none" font-family="Arial" font-size="24px" font-style="normal" font-weight="normal" text-decoration="none" x="400" y="420">UNREGISTERED</text><text fill="#eeeeee" stroke="none" font-family="Arial" font-size="24px" font-style="normal" font-weight="normal" text-decoration="none" x="400" y="450">UNREGISTERED</text><text fill="#eeeeee" stroke="none" font-family="Arial" font-size="24px" font-style="normal" font-weight="normal" text-decoration="none" x="400" y="480">UNREGISTERED</text><text fill="#eeeeee" stroke="none" font-family="Arial" font-size="24px" font-style="normal" font-weight="normal" text-decoration="none" x="400" y="510">UNREGISTERED</text><text fill="#eeeeee" stroke="none" font-family="Arial" font-size="24px" font-style="normal" font-weight="normal" text-decoration="none" x="400" y="540">UNREGISTERED</text><text fill="#eeeeee" stroke="none" font-family="Arial" font-size="24px" font-style="normal" font-weight="normal" text-decoration="none" x="400" y="570">UNREGISTERED</text><text fill="#eeeeee" stroke="none" font-family="Arial" font-size="24px" font-style="normal" font-weight="normal" text-decoration="none" x="400" y="600">UNREGISTERED</text><text fill="#eeeeee" stroke="none" font-family="Arial" font-size="24px" font-style="normal" font-weight="normal" text-decoration="none" x="600" y="0">UNREGISTERED</text><text fill="#eeeeee" stroke="none" font-family="Arial" font-size="24px" font-style="normal" font-weight="normal" text-decoration="none" x="600" y="30">UNREGISTERED</text><text fill="#eeeeee" stroke="none" font-family="Arial" font-size="24px" font-style="normal" font-weight="normal" text-decoration="none" x="600" y="60">UNREGISTERED</text><text fill="#eeeeee" stroke="none" font-family="Arial" font-size="24px" font-style="normal" font-weight="normal" text-decoration="none" x="600" y="90">UNREGISTERED</text><text fill="#eeeeee" stroke="none" font-family="Arial" font-size="24px" font-style="normal" font-weight="normal" text-decoration="none" x="600" y="120">UNREGISTERED</text><text fill="#eeeeee" stroke="none" font-family="Arial" font-size="24px" font-style="normal" font-weight="normal" text-decoration="none" x="600" y="150">UNREGISTERED</text><text fill="#eeeeee" stroke="none" font-family="Arial" font-size="24px" font-style="normal" font-weight="normal" text-decoration="none" x="600" y="180">UNREGISTERED</text><text fill="#eeeeee" stroke="none" font-family="Arial" font-size="24px" font-style="normal" font-weight="normal" text-decoration="none" x="600" y="210">UNREGISTERED</text><text fill="#eeeeee" stroke="none" font-family="Arial" font-size="24px" font-style="normal" font-weight="normal" text-decoration="none" x="600" y="240">UNREGISTERED</text><text fill="#eeeeee" stroke="none" font-family="Arial" font-size="24px" font-style="normal" font-weight="normal" text-decoration="none" x="600" y="270">UNREGISTERED</text><text fill="#eeeeee" stroke="none" font-family="Arial" font-size="24px" font-style="normal" font-weight="normal" text-decoration="none" x="600" y="300">UNREGISTERED</text><text fill="#eeeeee" stroke="none" font-family="Arial" font-size="24px" font-style="normal" font-weight="normal" text-decoration="none" x="600" y="330">UNREGISTERED</text><text fill="#eeeeee" stroke="none" font-family="Arial" font-size="24px" font-style="normal" font-weight="normal" text-decoration="none" x="600" y="360">UNREGISTERED</text><text fill="#eeeeee" stroke="none" font-family="Arial" font-size="24px" font-style="normal" font-weight="normal" text-decoration="none" x="600" y="390">UNREGISTERED</text><text fill="#eeeeee" stroke="none" font-family="Arial" font-size="24px" font-style="normal" font-weight="normal" text-decoration="none" x="600" y="420">UNREGISTERED</text><text fill="#eeeeee" stroke="none" font-family="Arial" font-size="24px" font-style="normal" font-weight="normal" text-decoration="none" x="600" y="450">UNREGISTERED</text><text fill="#eeeeee" stroke="none" font-family="Arial" font-size="24px" font-style="normal" font-weight="normal" text-decoration="none" x="600" y="480">UNREGISTERED</text><text fill="#eeeeee" stroke="none" font-family="Arial" font-size="24px" font-style="normal" font-weight="normal" text-decoration="none" x="600" y="510">UNREGISTERED</text><text fill="#eeeeee" stroke="none" font-family="Arial" font-size="24px" font-style="normal" font-weight="normal" text-decoration="none" x="600" y="540">UNREGISTERED</text><text fill="#eeeeee" stroke="none" font-family="Arial" font-size="24px" font-style="normal" font-weight="normal" text-decoration="none" x="600" y="570">UNREGISTERED</text><text fill="#eeeeee" stroke="none" font-family="Arial" font-size="24px" font-style="normal" font-weight="normal" text-decoration="none" x="600" y="600">UNREGISTERED</text><text fill="#eeeeee" stroke="none" font-family="Arial" font-size="24px" font-style="normal" font-weight="normal" text-decoration="none" x="800" y="0">UNREGISTERED</text><text fill="#eeeeee" stroke="none" font-family="Arial" font-size="24px" font-style="normal" font-weight="normal" text-decoration="none" x="800" y="30">UNREGISTERED</text><text fill="#eeeeee" stroke="none" font-family="Arial" font-size="24px" font-style="normal" font-weight="normal" text-decoration="none" x="800" y="60">UNREGISTERED</text><text fill="#eeeeee" stroke="none" font-family="Arial" font-size="24px" font-style="normal" font-weight="normal" text-decoration="none" x="800" y="90">UNREGISTERED</text><text fill="#eeeeee" stroke="none" font-family="Arial" font-size="24px" font-style="normal" font-weight="normal" text-decoration="none" x="800" y="120">UNREGISTERED</text><text fill="#eeeeee" stroke="none" font-family="Arial" font-size="24px" font-style="normal" font-weight="normal" text-decoration="none" x="800" y="150">UNREGISTERED</text><text fill="#eeeeee" stroke="none" font-family="Arial" font-size="24px" font-style="normal" font-weight="normal" text-decoration="none" x="800" y="180">UNREGISTERED</text><text fill="#eeeeee" stroke="none" font-family="Arial" font-size="24px" font-style="normal" font-weight="normal" text-decoration="none" x="800" y="210">UNREGISTERED</text><text fill="#eeeeee" stroke="none" font-family="Arial" font-size="24px" font-style="normal" font-weight="normal" text-decoration="none" x="800" y="240">UNREGISTERED</text><text fill="#eeeeee" stroke="none" font-family="Arial" font-size="24px" font-style="normal" font-weight="normal" text-decoration="none" x="800" y="270">UNREGISTERED</text><text fill="#eeeeee" stroke="none" font-family="Arial" font-size="24px" font-style="normal" font-weight="normal" text-decoration="none" x="800" y="300">UNREGISTERED</text><text fill="#eeeeee" stroke="none" font-family="Arial" font-size="24px" font-style="normal" font-weight="normal" text-decoration="none" x="800" y="330">UNREGISTERED</text><text fill="#eeeeee" stroke="none" font-family="Arial" font-size="24px" font-style="normal" font-weight="normal" text-decoration="none" x="800" y="360">UNREGISTERED</text><text fill="#eeeeee" stroke="none" font-family="Arial" font-size="24px" font-style="normal" font-weight="normal" text-decoration="none" x="800" y="390">UNREGISTERED</text><text fill="#eeeeee" stroke="none" font-family="Arial" font-size="24px" font-style="normal" font-weight="normal" text-decoration="none" x="800" y="420">UNREGISTERED</text><text fill="#eeeeee" stroke="none" font-family="Arial" font-size="24px" font-style="normal" font-weight="normal" text-decoration="none" x="800" y="450">UNREGISTERED</text><text fill="#eeeeee" stroke="none" font-family="Arial" font-size="24px" font-style="normal" font-weight="normal" text-decoration="none" x="800" y="480">UNREGISTERED</text><text fill="#eeeeee" stroke="none" font-family="Arial" font-size="24px" font-style="normal" font-weight="normal" text-decoration="none" x="800" y="510">UNREGISTERED</text><text fill="#eeeeee" stroke="none" font-family="Arial" font-size="24px" font-style="normal" font-weight="normal" text-decoration="none" x="800" y="540">UNREGISTERED</text><text fill="#eeeeee" stroke="none" font-family="Arial" font-size="24px" font-style="normal" font-weight="normal" text-decoration="none" x="800" y="570">UNREGISTERED</text><text fill="#eeeeee" stroke="none" font-family="Arial" font-size="24px" font-style="normal" font-weight="normal" text-decoration="none" x="800" y="600">UNREGISTERED</text><text fill="#eeeeee" stroke="none" font-family="Arial" font-size="24px" font-style="normal" font-weight="normal" text-decoration="none" x="1000" y="0">UNREGISTERED</text><text fill="#eeeeee" stroke="none" font-family="Arial" font-size="24px" font-style="normal" font-weight="normal" text-decoration="none" x="1000" y="30">UNREGISTERED</text><text fill="#eeeeee" stroke="none" font-family="Arial" font-size="24px" font-style="normal" font-weight="normal" text-decoration="none" x="1000" y="60">UNREGISTERED</text><text fill="#eeeeee" stroke="none" font-family="Arial" font-size="24px" font-style="normal" font-weight="normal" text-decoration="none" x="1000" y="90">UNREGISTERED</text><text fill="#eeeeee" stroke="none" font-family="Arial" font-size="24px" font-style="normal" font-weight="normal" text-decoration="none" x="1000" y="120">UNREGISTERED</text><text fill="#eeeeee" stroke="none" font-family="Arial" font-size="24px" font-style="normal" font-weight="normal" text-decoration="none" x="1000" y="150">UNREGISTERED</text><text fill="#eeeeee" stroke="none" font-family="Arial" font-size="24px" font-style="normal" font-weight="normal" text-decoration="none" x="1000" y="180">UNREGISTERED</text><text fill="#eeeeee" stroke="none" font-family="Arial" font-size="24px" font-style="normal" font-weight="normal" text-decoration="none" x="1000" y="210">UNREGISTERED</text><text fill="#eeeeee" stroke="none" font-family="Arial" font-size="24px" font-style="normal" font-weight="normal" text-decoration="none" x="1000" y="240">UNREGISTERED</text><text fill="#eeeeee" stroke="none" font-family="Arial" font-size="24px" font-style="normal" font-weight="normal" text-decoration="none" x="1000" y="270">UNREGISTERED</text><text fill="#eeeeee" stroke="none" font-family="Arial" font-size="24px" font-style="normal" font-weight="normal" text-decoration="none" x="1000" y="300">UNREGISTERED</text><text fill="#eeeeee" stroke="none" font-family="Arial" font-size="24px" font-style="normal" font-weight="normal" text-decoration="none" x="1000" y="330">UNREGISTERED</text><text fill="#eeeeee" stroke="none" font-family="Arial" font-size="24px" font-style="normal" font-weight="normal" text-decoration="none" x="1000" y="360">UNREGISTERED</text><text fill="#eeeeee" stroke="none" font-family="Arial" font-size="24px" font-style="normal" font-weight="normal" text-decoration="none" x="1000" y="390">UNREGISTERED</text><text fill="#eeeeee" stroke="none" font-family="Arial" font-size="24px" font-style="normal" font-weight="normal" text-decoration="none" x="1000" y="420">UNREGISTERED</text><text fill="#eeeeee" stroke="none" font-family="Arial" font-size="24px" font-style="normal" font-weight="normal" text-decoration="none" x="1000" y="450">UNREGISTERED</text><text fill="#eeeeee" stroke="none" font-family="Arial" font-size="24px" font-style="normal" font-weight="normal" text-decoration="none" x="1000" y="480">UNREGISTERED</text><text fill="#eeeeee" stroke="none" font-family="Arial" font-size="24px" font-style="normal" font-weight="normal" text-decoration="none" x="1000" y="510">UNREGISTERED</text><text fill="#eeeeee" stroke="none" font-family="Arial" font-size="24px" font-style="normal" font-weight="normal" text-decoration="none" x="1000" y="540">UNREGISTERED</text><text fill="#eeeeee" stroke="none" font-family="Arial" font-size="24px" font-style="normal" font-weight="normal" text-decoration="none" x="1000" y="570">UNREGISTERED</text><text fill="#eeeeee" stroke="none" font-family="Arial" font-size="24px" font-style="normal" font-weight="normal" text-decoration="none" x="1000" y="600">UNREGISTERED</text><g transform="translate(-38,-6) scale(1,1)"><path fill="#ffffff" stroke="none" d="M 75.24162571022727 73.68 C 75.24162571022727 68.886167936 79.12746803517273 65 83.9208984375 65 C 88.71432883982727 65 92.60017116477273 68.886167936 92.60017116477273 73.68 C 92.60017116477273 78.473832064 88.71432883982727 82.36 83.9208984375 82.36 C 79.12746803517273 82.36 75.24162571022727 78.473832064 75.24162571022727 73.68 Z"/></g><g transform="translate(-38,-6) scale(1,1)"><path fill="none" stroke="#000000" d="M 75.24162571022727 73.68 C 75.24162571022727 68.886167936 79.12746803517273 65 83.9208984375 65 C 88.71432883982727 65 92.60017116477273 68.886167936 92.60017116477273 73.68 C 92.60017116477273 78.473832064 88.71432883982727 82.36 83.9208984375 82.36 C 79.12746803517273 82.36 75.24162571022727 78.473832064 75.24162571022727 73.68 Z" stroke-miterlimit="10"/></g><g transform="translate(-38,-6) scale(1,1)"><path fill="none" stroke="#000000" d="M 83.9208984375 82.36 L 83.9208984375 99.64" stroke-miterlimit="10"/></g><g transform="translate(-38,-6) scale(1,1)"><path fill="none" stroke="#000000" d="M 74.73108025568182 88.84 L 93.11071661931818 88.84" stroke-miterlimit="10"/></g><g transform="translate(-38,-6) scale(1,1)"><path fill="none" stroke="#000000" d="M 83.9208984375 99.64 L 71.15726207386363 117" stroke-miterlimit="10"/></g><g transform="translate(-38,-6) scale(1,1)"><path fill="none" stroke="#000000" d="M 83.9208984375 99.64 L 96.68453480113637 117" stroke-miterlimit="10"/></g><g transform="translate(-38,-6) scale(1,1)"><g><path fill="none" stroke="none"/><text fill="#000000" stroke="none" font-family="Arial" font-size="13px" font-style="normal" font-weight="bold" text-decoration="none" x="54.648681640625" y="137.5">Internaute</text></g></g><g transform="translate(-38,-6) scale(1,1)"><path fill="#ffffff" stroke="none" d="M 72.40935031960227 369.68 C 72.40935031960227 364.886167936 76.29519264454773 361 81.088623046875 361 C 85.88205344920227 361 89.76789577414773 364.886167936 89.76789577414773 369.68 C 89.76789577414773 374.473832064 85.88205344920227 378.36 81.088623046875 378.36 C 76.29519264454773 378.36 72.40935031960227 374.473832064 72.40935031960227 369.68 Z"/></g><g transform="translate(-38,-6) scale(1,1)"><path fill="none" stroke="#000000" d="M 72.40935031960227 369.68 C 72.40935031960227 364.886167936 76.29519264454773 361 81.088623046875 361 C 85.88205344920227 361 89.76789577414773 364.886167936 89.76789577414773 369.68 C 89.76789577414773 374.473832064 85.88205344920227 378.36 81.088623046875 378.36 C 76.29519264454773 378.36 72.40935031960227 374.473832064 72.40935031960227 369.68 Z" stroke-miterlimit="10"/></g><g transform="translate(-38,-6) scale(1,1)"><path fill="none" stroke="#000000" d="M 81.088623046875 378.36 L 81.088623046875 395.64" stroke-miterlimit="10"/></g><g transform="translate(-38,-6) scale(1,1)"><path fill="none" stroke="#000000" d="M 71.89880486505682 384.84 L 90.27844122869318 384.84" stroke-miterlimit="10"/></g><g transform="translate(-38,-6) scale(1,1)"><path fill="none" stroke="#000000" d="M 81.088623046875 395.64 L 68.32498668323863 413" stroke-miterlimit="10"/></g><g transform="translate(-38,-6) scale(1,1)"><path fill="none" stroke="#000000" d="M 81.088623046875 395.64 L 93.85225941051137 413" stroke-miterlimit="10"/></g><g transform="translate(-38,-6) scale(1,1)"><g><path fill="none" stroke="none"/><text fill="#000000" stroke="none" font-family="Arial" font-size="13px" font-style="normal" font-weight="bold" text-decoration="none" x="64.470458984375" y="433.5">Client</text></g></g><g transform="translate(-38,-6) scale(1,1)"><path fill="none" stroke="#000000" d="M 81 359 L 83 144" stroke-miterlimit="10"/></g><g transform="translate(-38,-6) scale(1,1)"><path fill="#FFFFFF" stroke="none" d="M 91.22960643178604 164.40278358405797 L 83 144 L 74.39226388704337 164.2461571417813"/></g><g transform="translate(-38,-6) scale(1,1)"><path fill="none" stroke="#000000" d="M 91.22960643178604 164.40278358405797 L 83 144 L 74.39226388704337 164.2461571417813 L 91.22960643178604 164.40278358405797" stroke-miterlimit="10"/></g><g transform="translate(-38,-6) scale(1,1)"><path fill="#C0C0C0" stroke="none" d="M 231 55 C 231 37.3268864 333.7506384 23 460.5 23 C 587.2493616 23 690 37.3268864 690 55 C 690 72.6731136 587.2493616 87 460.5 87 C 333.7506384 87 231 72.6731136 231 55 Z" opacity="0.2"/></g><g transform="translate(-38,-6) scale(1,1)"><path fill="#ffffff" stroke="none" d="M 224 48 C 224 30.3268864 326.7506384 16 453.5 16 C 580.2493616 16 683 30.3268864 683 48 C 683 65.6731136 580.2493616 80 453.5 80 C 326.7506384 80 224 65.6731136 224 48 Z"/></g><g transform="translate(-38,-6) scale(1,1)"><path fill="none" stroke="#000000" d="M 224 48 C 224 30.3268864 326.7506384 16 453.5 16 C 580.2493616 16 683 30.3268864 683 48 C 683 65.6731136 580.2493616 80 453.5 80 C 326.7506384 80 224 65.6731136 224 48 Z" stroke-miterlimit="10"/></g><g transform="translate(-38,-6) scale(1,1)"><g><path fill="none" stroke="none"/><text fill="#000000" stroke="none" font-family="Arial" font-size="13px" font-style="normal" font-weight="bold" text-decoration="none" x="307.732421875" y="55">consulter le site d'achat des billets cinéma en ligne</text></g></g><g transform="translate(-38,-6) scale(1,1)"><path fill="#C0C0C0" stroke="none" d="M 303 139 C 303 127.95430400000001 371.9481408 119 457 119 C 542.0518592 119 611 127.95430400000001 611 139 C 611 150.045696 542.0518592 159 457 159 C 371.9481408 159 303 150.045696 303 139 Z" opacity="0.2"/></g><g transform="translate(-38,-6) scale(1,1)"><path fill="#ffffff" stroke="none" d="M 296 132 C 296 120.95430400000001 364.9481408 112 450 112 C 535.0518592 112 604 120.95430400000001 604 132 C 604 143.045696 535.0518592 152 450 152 C 364.9481408 152 296 143.045696 296 132 Z"/></g><g transform="translate(-38,-6) scale(1,1)"><path fill="none" stroke="#000000" d="M 296 132 C 296 120.95430400000001 364.9481408 112 450 112 C 535.0518592 112 604 120.95430400000001 604 132 C 604 143.045696 535.0518592 152 450 152 C 364.9481408 152 296 143.045696 296 132 Z" stroke-miterlimit="10"/></g><g transform="translate(-38,-6) scale(1,1)"><g><path fill="none" stroke="none"/><text fill="#000000" stroke="none" font-family="Arial" font-size="13px" font-style="normal" font-weight="bold" text-decoration="none" x="354.629638671875" y="139">voir les fiches des films proposés</text></g></g><g transform="translate(-38,-6) scale(1,1)"><path fill="#C0C0C0" stroke="none" d="M 319 211 C 319 195.5360256 370.93496319999997 183 435 183 C 499.06503680000003 183 551 195.5360256 551 211 C 551 226.4639744 499.06503680000003 239 435 239 C 370.93496319999997 239 319 226.4639744 319 211 Z" opacity="0.2"/></g><g transform="translate(-38,-6) scale(1,1)"><path fill="#ffffff" stroke="none" d="M 312 204 C 312 188.5360256 363.93496319999997 176 428 176 C 492.06503680000003 176 544 188.5360256 544 204 C 544 219.4639744 492.06503680000003 232 428 232 C 363.93496319999997 232 312 219.4639744 312 204 Z"/></g><g transform="translate(-38,-6) scale(1,1)"><path fill="none" stroke="#000000" d="M 312 204 C 312 188.5360256 363.93496319999997 176 428 176 C 492.06503680000003 176 544 188.5360256 544 204 C 544 219.4639744 492.06503680000003 232 428 232 C 363.93496319999997 232 312 219.4639744 312 204 Z" stroke-miterlimit="10"/></g><g transform="translate(-38,-6) scale(1,1)"><g><path fill="none" stroke="none"/><text fill="#000000" stroke="none" font-family="Arial" font-size="13px" font-style="normal" font-weight="bold" text-decoration="none" x="402.561767578125" y="211">s'inscrire</text></g></g><g transform="translate(-38,-6) scale(1,1)"><path fill="#C0C0C0" stroke="none" d="M 335 291 C 335 279.954304 375.7420832 271 426 271 C 476.2579168 271 517 279.954304 517 291 C 517 302.045696 476.2579168 311 426 311 C 375.7420832 311 335 302.045696 335 291 Z" opacity="0.2"/></g><g transform="translate(-38,-6) scale(1,1)"><path fill="#ffffff" stroke="none" d="M 328 284 C 328 272.954304 368.7420832 264 419 264 C 469.2579168 264 510 272.954304 510 284 C 510 295.045696 469.2579168 304 419 304 C 368.7420832 304 328 295.045696 328 284 Z"/></g><g transform="translate(-38,-6) scale(1,1)"><path fill="none" stroke="#000000" d="M 328 284 C 328 272.954304 368.7420832 264 419 264 C 469.2579168 264 510 272.954304 510 284 C 510 295.045696 469.2579168 304 419 304 C 368.7420832 304 328 295.045696 328 284 Z" stroke-miterlimit="10"/></g><g transform="translate(-38,-6) scale(1,1)"><g><path fill="none" stroke="none"/><text fill="#000000" stroke="none" font-family="Arial" font-size="13px" font-style="normal" font-weight="bold" text-decoration="none" x="363.724609375" y="291">gérer compte client</text></g></g><g transform="translate(-38,-6) scale(1,1)"><path fill="#C0C0C0" stroke="none" d="M 327 379 C 327 367.954304 379.1588208 359 443.5 359 C 507.8411792 359 560 367.954304 560 379 C 560 390.045696 507.8411792 399 443.5 399 C 379.1588208 399 327 390.045696 327 379 Z" opacity="0.2"/></g><g transform="translate(-38,-6) scale(1,1)"><path fill="#ffffff" stroke="none" d="M 320 372 C 320 360.954304 372.1588208 352 436.5 352 C 500.8411792 352 553 360.954304 553 372 C 553 383.045696 500.8411792 392 436.5 392 C 372.1588208 392 320 383.045696 320 372 Z"/></g><g transform="translate(-38,-6) scale(1,1)"><path fill="none" stroke="#000000" d="M 320 372 C 320 360.954304 372.1588208 352 436.5 352 C 500.8411792 352 553 360.954304 553 372 C 553 383.045696 500.8411792 392 436.5 392 C 372.1588208 392 320 383.045696 320 372 Z" stroke-miterlimit="10"/></g><g transform="translate(-38,-6) scale(1,1)"><g><path fill="none" stroke="none"/><text fill="#000000" stroke="none" font-family="Arial" font-size="13px" font-style="normal" font-weight="bold" text-decoration="none" x="364.971435546875" y="379">choisir un film à regarder</text></g></g><g transform="translate(-38,-6) scale(1,1)"><path fill="#C0C0C0" stroke="none" d="M 687 327 C 687 313.7451648 721.0263552 303 763 303 C 804.9736448 303 839 313.7451648 839 327 C 839 340.2548352 804.9736448 351 763 351 C 721.0263552 351 687 340.2548352 687 327 Z" opacity="0.2"/></g><g transform="translate(-38,-6) scale(1,1)"><path fill="#ffffff" stroke="none" d="M 680 320 C 680 306.7451648 714.0263552 296 756 296 C 797.9736448 296 832 306.7451648 832 320 C 832 333.2548352 797.9736448 344 756 344 C 714.0263552 344 680 333.2548352 680 320 Z"/></g><g transform="translate(-38,-6) scale(1,1)"><path fill="none" stroke="#000000" d="M 680 320 C 680 306.7451648 714.0263552 296 756 296 C 797.9736448 296 832 306.7451648 832 320 C 832 333.2548352 797.9736448 344 756 344 C 714.0263552 344 680 333.2548352 680 320 Z" stroke-miterlimit="10"/></g><g transform="translate(-38,-6) scale(1,1)"><g><path fill="none" stroke="none"/><text fill="#000000" stroke="none" font-family="Arial" font-size="13px" font-style="normal" font-weight="bold" text-decoration="none" x="719.3486328125" y="327">s'authentifier</text></g></g><g transform="translate(-38,-6) scale(1,1)"><path fill="#C0C0C0" stroke="none" d="M 639 200 C 639 190.6111584 664.5197664 183 696 183 C 727.4802336 183 753 190.6111584 753 200 C 753 209.3888416 727.4802336 217 696 217 C 664.5197664 217 639 209.3888416 639 200 Z" opacity="0.2"/></g><g transform="translate(-38,-6) scale(1,1)"><path fill="#ffffff" stroke="none" d="M 632 193 C 632 183.6111584 657.5197664 176 689 176 C 720.4802336 176 746 183.6111584 746 193 C 746 202.3888416 720.4802336 210 689 210 C 657.5197664 210 632 202.3888416 632 193 Z"/></g><g transform="translate(-38,-6) scale(1,1)"><path fill="none" stroke="#000000" d="M 632 193 C 632 183.6111584 657.5197664 176 689 176 C 720.4802336 176 746 183.6111584 746 193 C 746 202.3888416 720.4802336 210 689 210 C 657.5197664 210 632 202.3888416 632 193 Z" stroke-miterlimit="10"/></g><g transform="translate(-38,-6) scale(1,1)"><g><path fill="none" stroke="none"/><text fill="#000000" stroke="none" font-family="Arial" font-size="13px" font-style="normal" font-weight="bold" text-decoration="none" x="656.48095703125" y="200">entrer login</text></g></g><g transform="translate(-38,-6) scale(1,1)"><path fill="#C0C0C0" stroke="none" d="M 791 200 C 791 190.6111584 837.5623808 183 895 183 C 952.4376192 183 999 190.6111584 999 200 C 999 209.3888416 952.4376192 217 895 217 C 837.5623808 217 791 209.3888416 791 200 Z" opacity="0.2"/></g><g transform="translate(-38,-6) scale(1,1)"><path fill="#ffffff" stroke="none" d="M 784 193 C 784 183.6111584 830.5623808 176 888 176 C 945.4376192 176 992 183.6111584 992 193 C 992 202.3888416 945.4376192 210 888 210 C 830.5623808 210 784 202.3888416 784 193 Z"/></g><g transform="translate(-38,-6) scale(1,1)"><path fill="none" stroke="#000000" d="M 784 193 C 784 183.6111584 830.5623808 176 888 176 C 945.4376192 176 992 183.6111584 992 193 C 992 202.3888416 945.4376192 210 888 210 C 830.5623808 210 784 202.3888416 784 193 Z" stroke-miterlimit="10"/></g><g transform="translate(-38,-6) scale(1,1)"><g><path fill="none" stroke="none"/><text fill="#000000" stroke="none" font-family="Arial" font-size="13px" font-style="normal" font-weight="bold" text-decoration="none" x="830.19189453125" y="200">entrer mot de passe</text></g></g><g transform="translate(-38,-6) scale(1,1)"><path fill="#C0C0C0" stroke="none" d="M 663 427 C 663 415.954304 715.3826784 407 780 407 C 844.6173216 407 897 415.954304 897 427 C 897 438.045696 844.6173216 447 780 447 C 715.3826784 447 663 438.045696 663 427 Z" opacity="0.2"/></g><g transform="translate(-38,-6) scale(1,1)"><path fill="#ffffff" stroke="none" d="M 656 420 C 656 408.954304 708.3826784 400 773 400 C 837.6173216 400 890 408.954304 890 420 C 890 431.045696 837.6173216 440 773 440 C 708.3826784 440 656 431.045696 656 420 Z"/></g><g transform="translate(-38,-6) scale(1,1)"><path fill="none" stroke="#000000" d="M 656 420 C 656 408.954304 708.3826784 400 773 400 C 837.6173216 400 890 408.954304 890 420 C 890 431.045696 837.6173216 440 773 440 C 708.3826784 440 656 431.045696 656 420 Z" stroke-miterlimit="10"/></g><g transform="translate(-38,-6) scale(1,1)"><g><path fill="none" stroke="none"/><text fill="#000000" stroke="none" font-family="Arial" font-size="13px" font-style="normal" font-weight="bold" text-decoration="none" x="700.3828125" y="427">choisir la salle de cinéma</text></g></g><g transform="translate(-38,-6) scale(1,1)"><path fill="#C0C0C0" stroke="none" d="M 711 528 C 711 518.6111584 740.101488 511 776 511 C 811.898512 511 841 518.6111584 841 528 C 841 537.3888416 811.898512 545 776 545 C 740.101488 545 711 537.3888416 711 528 Z" opacity="0.2"/></g><g transform="translate(-38,-6) scale(1,1)"><path fill="#ffffff" stroke="none" d="M 704 521 C 704 511.6111584 733.101488 504 769 504 C 804.898512 504 834 511.6111584 834 521 C 834 530.3888416 804.898512 538 769 538 C 733.101488 538 704 530.3888416 704 521 Z"/></g><g transform="translate(-38,-6) scale(1,1)"><path fill="none" stroke="#000000" d="M 704 521 C 704 511.6111584 733.101488 504 769 504 C 804.898512 504 834 511.6111584 834 521 C 834 530.3888416 804.898512 538 769 538 C 733.101488 538 704 530.3888416 704 521 Z" stroke-miterlimit="10"/></g><g transform="translate(-38,-6) scale(1,1)"><g><path fill="none" stroke="none"/><text fill="#000000" stroke="none" font-family="Arial" font-size="13px" font-style="normal" font-weight="bold" text-decoration="none" x="730.701416015625" y="528">payer le billet</text></g></g><g transform="translate(-38,-6) scale(1,1)"><path fill="#C0C0C0" stroke="none" d="M 527 600 C 527 590.6111584 568.8613712 583 620.5 583 C 672.1386288 583 714 590.6111584 714 600 C 714 609.3888416 672.1386288 617 620.5 617 C 568.8613712 617 527 609.3888416 527 600 Z" opacity="0.2"/></g><g transform="translate(-38,-6) scale(1,1)"><path fill="#ffffff" stroke="none" d="M 520 593 C 520 583.6111584 561.8613712 576 613.5 576 C 665.1386288 576 707 583.6111584 707 593 C 707 602.3888416 665.1386288 610 613.5 610 C 561.8613712 610 520 602.3888416 520 593 Z"/></g><g transform="translate(-38,-6) scale(1,1)"><path fill="none" stroke="#000000" d="M 520 593 C 520 583.6111584 561.8613712 576 613.5 576 C 665.1386288 576 707 583.6111584 707 593 C 707 602.3888416 665.1386288 610 613.5 610 C 561.8613712 610 520 602.3888416 520 593 Z" stroke-miterlimit="10"/></g><g transform="translate(-38,-6) scale(1,1)"><g><path fill="none" stroke="none"/><text fill="#000000" stroke="none" font-family="Arial" font-size="13px" font-style="normal" font-weight="bold" text-decoration="none" x="555.45068359375" y="600">payer par carte Visa</text></g></g><g transform="translate(-38,-6) scale(1,1)"><path fill="#C0C0C0" stroke="none" d="M 791 600 C 791 590.6111584 847.1882576 583 916.5 583 C 985.8117424 583 1042 590.6111584 1042 600 C 1042 609.3888416 985.8117424 617 916.5 617 C 847.1882576 617 791 609.3888416 791 600 Z" opacity="0.2"/></g><g transform="translate(-38,-6) scale(1,1)"><path fill="#ffffff" stroke="none" d="M 784 593 C 784 583.6111584 840.1882576 576 909.5 576 C 978.8117424 576 1035 583.6111584 1035 593 C 1035 602.3888416 978.8117424 610 909.5 610 C 840.1882576 610 784 602.3888416 784 593 Z"/></g><g transform="translate(-38,-6) scale(1,1)"><path fill="none" stroke="#000000" d="M 784 593 C 784 583.6111584 840.1882576 576 909.5 576 C 978.8117424 576 1035 583.6111584 1035 593 C 1035 602.3888416 978.8117424 610 909.5 610 C 840.1882576 610 784 602.3888416 784 593 Z" stroke-miterlimit="10"/></g><g transform="translate(-38,-6) scale(1,1)"><g><path fill="none" stroke="none"/><text fill="#000000" stroke="none" font-family="Arial" font-size="13px" font-style="normal" font-weight="bold" text-decoration="none" x="830.024169921875" y="600">payer par carte MasterCard</text></g></g><g transform="translate(-38,-6) scale(1,1)"><path fill="none" stroke="#000000" d="M 121 97 L 231 81" stroke-miterlimit="10"/></g><g transform="translate(-38,-6) scale(1,1)"><path fill="none" stroke="#000000" d="M 121 106 L 295 120" stroke-miterlimit="10"/></g><g transform="translate(-38,-6) scale(1,1)"><path fill="none" stroke="#000000" d="M 121 114 L 329 175" stroke-miterlimit="10"/></g><g transform="translate(-38,-6) scale(1,1)"><path fill="none" stroke="#000000" d="M 107 390 L 357 305" stroke-miterlimit="10"/></g><g transform="translate(-38,-6) scale(1,1)"><path fill="none" stroke="#000000" d="M 107 397 L 319 381" stroke-miterlimit="10"/></g><g transform="translate(-38,-6) scale(1,1)"><path fill="none" stroke="#000000" d="M 511 294 L 679 312" stroke-miterlimit="10" stroke-dasharray="3"/></g><g transform="translate(-38,-6) scale(1,1)"><path fill="none" stroke="#000000" d="M 668.4467062852113 315.10290054133253 L 679 312 L 669.3436124362959 306.7317764645432" stroke-miterlimit="10"/></g><g transform="translate(-38,-6) scale(1,1)"><g><path fill="none" stroke="none"/><text fill="#000000" stroke="none" font-family="Arial" font-size="13px" font-style="normal" font-weight="normal" text-decoration="none" x="570.5" y="279.5">«include»</text></g></g><g transform="translate(-38,-6) scale(1,1)"><path fill="none" stroke="#000000" d="M 554 353 L 679 333" stroke-miterlimit="10" stroke-dasharray="3"/></g><g transform="translate(-38,-6) scale(1,1)"><path fill="none" stroke="#000000" d="M 669.630025736314 338.76225496640524 L 679 333 L 668.2998980969331 330.4489572202752" stroke-miterlimit="10"/></g><g transform="translate(-38,-6) scale(1,1)"><g><path fill="none" stroke="none"/><text fill="#000000" stroke="none" font-family="Arial" font-size="13px" font-style="normal" font-weight="normal" text-decoration="none" x="583.5" y="364.5">«include»</text></g></g><g transform="translate(-38,-6) scale(1,1)"><path fill="none" stroke="#000000" d="M 743 295 L 698 211" stroke-miterlimit="10" stroke-dasharray="3"/></g><g transform="translate(-38,-6) scale(1,1)"><path fill="none" stroke="#000000" d="M 706.5096382616108 217.9703699081562 L 698 211 L 699.0884270907936 221.9460187496654" stroke-miterlimit="10"/></g><g transform="translate(-38,-6) scale(1,1)"><g><path fill="none" stroke="none"/><text fill="#000000" stroke="none" font-family="Arial" font-size="13px" font-style="normal" font-weight="normal" text-decoration="none" x="665.5" y="272.5">«include»</text></g></g><g transform="translate(-38,-6) scale(1,1)"><path fill="none" stroke="#000000" d="M 782 295 L 869 211" stroke-miterlimit="10" stroke-dasharray="3"/></g><g transform="translate(-38,-6) scale(1,1)"><path fill="none" stroke="#000000" d="M 864.612864802295 221.0872714227911 L 869 211 L 858.7650489249958 215.03060497844544" stroke-miterlimit="10"/></g><g transform="translate(-38,-6) scale(1,1)"><g><path fill="none" stroke="none"/><text fill="#000000" stroke="none" font-family="Arial" font-size="13px" font-style="normal" font-weight="normal" text-decoration="none" x="776.5" y="237.5">«include»</text></g></g><g transform="translate(-38,-6) scale(1,1)"><path fill="none" stroke="#000000" d="M 554 389 L 655 403" stroke-miterlimit="10" stroke-dasharray="3"/></g><g transform="translate(-38,-6) scale(1,1)"><path fill="none" stroke="#000000" d="M 644.3556007877054 405.77430449109335 L 655 403 L 645.5115436166013 397.4350026540581" stroke-miterlimit="10"/></g><g transform="translate(-38,-6) scale(1,1)"><g><path fill="none" stroke="none"/><text fill="#000000" stroke="none" font-family="Arial" font-size="13px" font-style="normal" font-weight="normal" text-decoration="none" x="567.5" y="412.5">«include»</text></g></g><g transform="translate(-38,-6) scale(1,1)"><path fill="none" stroke="#000000" d="M 772 441 L 770 503" stroke-miterlimit="10" stroke-dasharray="3"/></g><g transform="translate(-38,-6) scale(1,1)"><path fill="none" stroke="#000000" d="M 766.1203284999245 492.70688827168857 L 770 503 L 774.5349870761203 492.9783288709207" stroke-miterlimit="10"/></g><g transform="translate(-38,-6) scale(1,1)"><g><path fill="none" stroke="none"/><text fill="#000000" stroke="none" font-family="Arial" font-size="13px" font-style="normal" font-weight="normal" text-decoration="none" x="772.5" y="478.5">«include»</text></g></g><g transform="translate(-38,-6) scale(1,1)"><path fill="none" stroke="#000000" d="M 652 575 L 730 539" stroke-miterlimit="10"/></g><g transform="translate(-38,-6) scale(1,1)"><path fill="#FFFFFF" stroke="none" d="M 715.0734736604445 555.1616463095365 L 730 539 L 708.0173423051289 539.8733617063526"/></g><g transform="translate(-38,-6) scale(1,1)"><path fill="none" stroke="#000000" d="M 715.0734736604445 555.1616463095365 L 730 539 L 708.0173423051289 539.8733617063526 L 715.0734736604445 555.1616463095365" stroke-miterlimit="10"/></g><g transform="translate(-38,-6) scale(1,1)"><path fill="none" stroke="#000000" d="M 874 575 L 804 539" stroke-miterlimit="10"/></g><g transform="translate(-38,-6) scale(1,1)"><path fill="#FFFFFF" stroke="none" d="M 825.9255147392324 540.8088127099575 L 804 539 L 818.2246564200095 555.7827038862241"/></g><g transform="translate(-38,-6) scale(1,1)"><path fill="none" stroke="#000000" d="M 825.9255147392324 540.8088127099575 L 804 539 L 818.2246564200095 555.7827038862241 L 825.9255147392324 540.8088127099575" stroke-miterlimit="10"/></g></g></svg>