<?xml version="1.0" encoding="utf-8"?>
<!-- Generator: Adobe Illustrator 19.0.0, SVG Export Plug-In . SVG Version: 6.00 Build 0)  -->
<svg version="1.1" id="Calque_1" xmlns="http://www.w3.org/2000/svg" xmlns:xlink="http://www.w3.org/1999/xlink" x="0px" y="0px"
	 viewBox="-37 -171.1 521 1182" style="enable-background:new -37 -171.1 521 1182;" xml:space="preserve">
<style type="text/css">
	.st0{fill:none;}
	.st1{fill:#FFFFFF;stroke:#000000;}
	.st2{font-family:'Helvetica';}
	.st3{font-size:12px;}
	.st4{fill:#FFFFFF;stroke:#000000;stroke-miterlimit:10;}
	.st5{fill:none;stroke:#000000;stroke-miterlimit:10;}
	.st6{stroke:#000000;stroke-miterlimit:10;}
	.st7{fill:none;stroke:#000000;}
</style>
<path class="st0" d="z"/>
<g>
	<rect x="145" y="-171.1" pointer-events="none" class="st1" width="150" height="80"/>
	<g transform="translate(201.5,33.5)">
		<text transform="matrix(1 0 0 1 -30.6973 -159.11)" class="st2 st3">Etre capable de ...</text>
	</g>
	<path pointer-events="none" class="st4" d="M34-21.1h30l15,25l-15,25H34l-15-25L34-21.1z"/>
	<g transform="translate(57.5,168.5)">
		<text transform="matrix(1 0 0 1 -31.3447 -159.11)" class="st2 st3">Acteur 1</text>
	</g>
	<path pointer-events="none" class="st4" d="M106.5-21.1h35l17.5,25l-17.5,25h-35L89,3.9L106.5-21.1z"/>
	<g transform="translate(132.5,168.5)">
		<text transform="matrix(1 0 0 1 -31.3447 -159.11)" class="st2 st3">Acteur 2</text>
	</g>
	<path pointer-events="none" class="st4" d="M66.5,48.9h35l17.5,20l-17.5,20h-35L49,68.9L66.5,48.9z"/>
	<g transform="translate(92.5,233.5)">
		<text transform="matrix(1 0 0 1 -31.3447 -159.11)" class="st2 st3">Acteur 3</text>
	</g>
	<path pointer-events="none" class="st5" d="M36.5-51.1h95l47.5,75l-47.5,75h-95l-47.5-75L36.5-51.1z"/>
	<path pointer-events="none" class="st5" d="M286.5-31.1h35l17.5,20l-17.5,20h-35l-17.5-20L286.5-31.1z"/>
	<g transform="translate(312.5,153.5)">
		<text transform="matrix(1 0 0 1 -31.3447 -159.11)" class="st2 st3">Acteur 4</text>
	</g>
	<path pointer-events="none" class="st5" d="M384-31.1h30l15,20l-15,20h-30l-15-20L384-31.1z"/>
	<g transform="translate(407.5,153.5)">
		<text transform="matrix(1 0 0 1 -31.3447 -159.11)" class="st2 st3">Acteur 5</text>
	</g>
	<path pointer-events="none" class="st5" d="M322.8,28.9h37.5l18.8,20l-18.8,20h-37.5l-18.8-20L322.8,28.9z"/>
	<g transform="translate(349.5,213.5)">
		<text transform="matrix(1 0 0 1 -30.3447 -159.11)" class="st2 st3">Acteur 6</text>
	</g>
	<path pointer-events="none" class="st5" d="M294-51.1h110l55,75l-55,75H294l-55-75L294-51.1z"/>
	<g transform="translate(222.5,298.5)">
		<text transform="matrix(1 0 0 1 -55.0352 -152.11)" class="st2 st3">Ethique&lt;br&gt;&lt;br&gt;</text>
	</g>
	<path pointer-events="none" class="st5" d="M229,178.9v20v-30v13.6"/>
	<path pointer-events="none" class="st6" d="M229,187.8l-3.5-7l3.5,1.8l3.5-1.8L229,187.8z"/>
	<path pointer-events="none" class="st5" d="M99-71.1h260l130,125l-130,125H99l-130-125L99-71.1z"/>
	<ellipse pointer-events="none" class="st7" cx="149" cy="338.9" rx="60" ry="30"/>
	<g transform="translate(168.5,503.5)">
		<text transform="matrix(1 0 0 1 -30.6758 -159.11)" class="st2 st3">Bon</text>
	</g>
	<path class="st7" d="M304,378.9c32.7,0,59.2-15.2,60-34.2c0,0,0-0.1,0-0.1c-1-4.1-2.1-8.2-3.3-12.2c-8.2-13.7-30.4-23.5-56.7-23.5
		c-33.1,0-60,15.7-60,35S270.9,378.9,304,378.9z"/>
	<g transform="translate(312.5,508.5)">
		<text transform="matrix(1 0 0 1 -31.3418 -159.11)" class="st2 st3">Mauvais</text>
	</g>
	<g transform="translate(226.5,576.5)">
		<text transform="matrix(1 0 0 1 -30.3682 -159.11)" class="st2 st3">Groupe de Concepts</text>
	</g>
	<path class="st7" d="M239,438.9c26.8,0,52-3.3,74.2-9.1c0.3-0.8,0.7-1.6,1-2.4c0-0.2,0-0.4,0.1-0.6c0.1-1.2,0.3-2.3,0.5-3.4
		c-0.4-0.3-0.7-0.6-0.9-1c-2-0.5-3.7-2.1-3.8-4.7c-0.1-4.5-0.7-8.8,0.2-13.3c0.6-3.1,3.9-4.1,6.5-3.3c0-0.2,0-0.4,0.1-0.7
		c-0.1,0-0.3,0-0.4,0.1c-6.4,1.3-8.6-7.3-2.7-9.6c1.3-0.5,2.6-1,3.8-1.6c0.3-0.3,0.6-0.7,1-0.9c7-5.1,15-8.5,22.7-12.4
		c7.1-3.6,15.4-7.7,19.5-14.8c0.8-1.4,2.2-2.1,3.7-2.3c0.3-2.6,0.7-5.1,1.3-7.7c-0.6-2.3-1.2-4.5-1.7-6.6c-1.2-4.9-2.5-9.7-3.9-14.6
		c-0.4-1.4-0.8-2.8-1.3-4.2c-1.5-1.7-2.9-3.5-4.1-5.6c-2.3-4.1,2.6-9.8,6.8-6.8c0.2,0.1,0.4,0.3,0.6,0.5c0.1,0,0.1,0,0.2,0
		c0.2,0.1,0.4,0.1,0.6,0.2c2.5-1.2,5.2-1.7,7.9-0.7c-28.9-20.9-77.1-34.6-131.8-34.6c-88.4,0-160,35.8-160,80S150.6,438.9,239,438.9
		z"/>
	<path class="st7" d="M374.9,316.6c1.4,1.7,2.3,3.8,2.9,6c2.5,2.3,4.6,5,6.5,7.7c0.9,1.3,0.9,2.8,0.4,4.1c2,2.3,3.6,5,4.4,8.5
		c2.1,8.6,0.6,17-3.3,24.8c-1.4,2.8-3,5.5-4.7,8.2c-0.1,0.4-0.2,0.8-0.3,1.2c-2.3,5.4-5,10.4-8.5,15.2c-1.4,2-4,2.5-6,1.9
		c-2,3.2-4.8,5.7-7.6,8.1c-1.6,1.4-3.2,2.7-4.8,4.1c-0.6,0.6-1.3,1.2-1.8,1.8c0,0,0,0-0.1,0.1c-0.1,1.6-1.3,3-2.5,3.8
		c-3.8,2.6-8.1,4-12.6,4.5c-0.1,1.5-0.8,2.8-2.4,3.5c-2.3,1.1-4.7,1.8-7.1,2.5c-0.5,0.9-0.9,1.8-1.3,2.7c0,0.2,0,0.5,0,0.7
		c43.9-14.3,73-39,73-67.1C399,343.4,390.2,328.9,374.9,316.6z"/>
	<g transform="translate(166.5,666.5)">
		<text transform="matrix(1 0 0 1 -31.041 -159.11)" class="st2 st3">Modélisation de rapports finis</text>
	</g>
	<path class="st5" d="M-31,588.9c4.2-4.2,8.3-8.3,12.5-12.5"/>
	<path pointer-events="none" class="st5" d="M-31,658.9l50-50"/>
	<path pointer-events="none" class="st5" d="M-31,728.9l50-50"/>
	<path pointer-events="none" class="st5" d="M-31,798.9l50-50"/>
	<path pointer-events="none" class="st5" d="M-31,868.9l50-50"/>
	<path pointer-events="none" class="st5" d="M-31,938.9l50-50"/>
	<path pointer-events="none" class="st5" d="M-31,1008.9l50-50"/>
</g>
<path class="st0" d="z"/>
<line class="st5" x1="145" y1="-149.2" x2="99" y2="-71.1"/>
<line class="st5" x1="295" y1="-149.2" x2="359" y2="-71.1"/>
<line class="st5" x1="33" y1="198.9" x2="34" y2="198.9"/>
<line class="st5" x1="101.2" y1="-74.8" x2="145" y2="-75.2"/>
<line class="st5" x1="137.8" y1="-74.8" x2="99" y2="-71.1"/>
<line class="st5" x1="36.5" y1="98.9" x2="119" y2="308.9"/>
<line class="st5" x1="9" y1="217.8" x2="11" y2="218.8"/>
<line class="st5" x1="404" y1="98.9" x2="314" y2="308.9"/>
<path class="st5" d="M359.5,337c-4.9,11.4-9.7,22.8-14.5,34.2"/>
<path class="st5" d="M-6.2,583.4C-15,600.9-22,619.9-31,637.9c-1,2,0,3-1,5c-4,8-8,17-12,25c-12,27-23,53-34.9,80.1"/>
</svg>
